<svg width="33" height="33" viewBox="0 0 33 33" fill="none" xmlns="http://www.w3.org/2000/svg">
<rect x="0.5" y="0.5" width="32" height="32" rx="16" fill="#2563EB"/>
<path d="M9.5 9H23.5V23H9.5V9ZM17.0938 19.9375V15.4375H15.7812V19.9062C15.7812 20.5625 15.5 20.75 15.0938 20.75C14.625 20.75 14.4375 20.4375 14.25 20.0625L13.1562 20.7188C13.4688 21.375 14.0938 21.9062 15.125 21.9062C16.3125 21.9062 17.0938 21.2812 17.0938 19.9375ZM20.2188 21.9062C21.4688 21.9062 22.4062 21.2812 22.4062 20.0938C22.4062 19 21.7812 18.5 20.6562 18.0312L20.3125 17.875C19.75 17.625 19.5 17.4688 19.5 17.0625C19.5 16.75 19.75 16.5 20.125 16.5C20.5312 16.5 20.75 16.6875 21 17.0625L22 16.4062C21.5938 15.6562 20.9688 15.375 20.1562 15.375C18.9688 15.375 18.2188 16.125 18.2188 17.0938C18.2188 18.1875 18.8438 18.6875 19.7812 19.0938L20.125 19.2188C20.7188 19.5 21.0938 19.6562 21.0938 20.0938C21.0938 20.4688 20.7188 20.75 20.1875 20.75C19.5312 20.75 19.1875 20.4062 18.9062 19.9688L17.8125 20.5625C18.2188 21.3438 19 21.9062 20.2188 21.9062Z" fill="white"/>
</svg>
