<svg width="40" height="40" viewBox="0 0 40 40" fill="none" xmlns="http://www.w3.org/2000/svg">
<path d="M33.7172 18.464C33.6698 18.2637 33.5738 18.0781 33.4375 17.9238C33.3012 17.7696 33.1289 17.6513 32.9359 17.5797L23.9344 14.2031L26.225 2.74528C26.2769 2.47906 26.2407 2.20319 26.1221 1.95931C26.0034 1.71543 25.8086 1.51676 25.5671 1.39328C25.3256 1.2698 25.0506 1.22822 24.7834 1.2748C24.5162 1.32139 24.2714 1.45361 24.0859 1.65153L6.58593 20.4015C6.4438 20.5513 6.34097 20.7339 6.28665 20.9331C6.23233 21.1323 6.2282 21.3419 6.27463 21.5431C6.32105 21.7443 6.41659 21.9308 6.55271 22.0861C6.68883 22.2413 6.86129 22.3604 7.05468 22.4328L16.0594 25.8093L13.775 37.2547C13.7231 37.5209 13.7592 37.7967 13.8779 38.0406C13.9966 38.2845 14.1914 38.4832 14.4328 38.6067C14.6743 38.7301 14.9494 38.7717 15.2166 38.7251C15.4838 38.6785 15.7286 38.5463 15.9141 38.3484L33.4141 19.5984C33.5536 19.4486 33.6542 19.2668 33.7071 19.069C33.76 18.8712 33.7634 18.6635 33.7172 18.464ZM17.0891 33.4375L18.725 25.2531C18.7835 24.9628 18.7371 24.6612 18.5941 24.402C18.451 24.1427 18.2205 23.9427 17.9437 23.8375L9.68749 20.7359L22.9094 6.57028L21.275 14.7547C21.2164 15.0449 21.2628 15.3465 21.4059 15.6058C21.549 15.865 21.7794 16.0651 22.0562 16.1703L30.3062 19.264L17.0891 33.4375Z" fill="#2563EB"/>
</svg>
