<svg width="32" height="33" viewBox="0 0 32 33" fill="none" xmlns="http://www.w3.org/2000/svg">
<rect y="0.5" width="32" height="32" rx="16" fill="#2563EB"/>
<path d="M10.48 13.8266L6.67189 17L10.48 20.1735C10.5579 20.2358 10.6225 20.313 10.6702 20.4006C10.7178 20.4882 10.7475 20.5845 10.7575 20.6837C10.7675 20.7829 10.7577 20.8831 10.7285 20.9785C10.6993 21.0739 10.6514 21.1624 10.5875 21.2391C10.5237 21.3157 10.4452 21.3788 10.3567 21.4247C10.2681 21.4706 10.1714 21.4984 10.0719 21.5065C9.97255 21.5146 9.87254 21.5027 9.77777 21.4717C9.683 21.4406 9.59537 21.391 9.52002 21.3256L5.02002 17.5756C4.93558 17.5053 4.86765 17.4172 4.82103 17.3176C4.77441 17.2181 4.75024 17.1095 4.75024 16.9996C4.75024 16.8896 4.77441 16.781 4.82103 16.6815C4.86765 16.5819 4.93558 16.4938 5.02002 16.4235L9.52002 12.6735C9.67293 12.5462 9.87015 12.4848 10.0683 12.5029C10.2664 12.521 10.4493 12.6171 10.5766 12.77C10.7039 12.9229 10.7652 13.1202 10.7471 13.3183C10.729 13.5164 10.6329 13.6993 10.48 13.8266ZM26.98 16.4235L22.48 12.6735C22.4043 12.6104 22.3169 12.5629 22.2228 12.5337C22.1288 12.5044 22.0298 12.494 21.9317 12.5029C21.8336 12.5119 21.7382 12.5401 21.651 12.5859C21.5638 12.6318 21.4865 12.6943 21.4235 12.77C21.2962 12.9229 21.2348 13.1202 21.2529 13.3183C21.271 13.5164 21.3671 13.6993 21.52 13.8266L25.3281 17L21.52 20.1735C21.4422 20.2358 21.3775 20.313 21.3299 20.4006C21.2822 20.4882 21.2525 20.5845 21.2425 20.6837C21.2325 20.7829 21.2424 20.8831 21.2716 20.9785C21.3008 21.0739 21.3487 21.1624 21.4125 21.2391C21.4764 21.3157 21.5548 21.3788 21.6434 21.4247C21.7319 21.4706 21.8287 21.4984 21.9281 21.5065C22.0275 21.5146 22.1275 21.5027 22.2223 21.4717C22.317 21.4406 22.4047 21.391 22.48 21.3256L26.98 17.5756C27.0645 17.5053 27.1324 17.4172 27.179 17.3176C27.2256 17.2181 27.2498 17.1095 27.2498 16.9996C27.2498 16.8896 27.2256 16.781 27.179 16.6815C27.1324 16.5819 27.0645 16.4938 26.98 16.4235ZM19.256 8.04502C19.1634 8.01141 19.0651 7.99636 18.9667 8.00074C18.8683 8.00512 18.7717 8.02883 18.6825 8.07053C18.5932 8.11223 18.5131 8.1711 18.4466 8.24377C18.3801 8.31645 18.3286 8.4015 18.295 8.49409L12.295 24.9941C12.2613 25.0867 12.2461 25.1851 12.2504 25.2836C12.2547 25.3821 12.2784 25.4788 12.3201 25.5681C12.3618 25.6575 12.4207 25.7377 12.4935 25.8043C12.5662 25.8708 12.6514 25.9224 12.7441 25.956C12.8262 25.9852 12.9128 26.0001 13 26C13.154 26 13.3043 25.9526 13.4305 25.8642C13.5566 25.7758 13.6525 25.6507 13.705 25.506L19.705 9.00596C19.7386 8.91338 19.7537 8.81508 19.7493 8.71669C19.7449 8.61829 19.7212 8.52172 19.6795 8.43249C19.6378 8.34325 19.5789 8.26311 19.5063 8.19663C19.4336 8.13015 19.3485 8.07863 19.256 8.04502Z" fill="white"/>
</svg>
