<svg width="32" height="33" viewBox="0 0 32 33" fill="none" xmlns="http://www.w3.org/2000/svg">
<rect y="0.5" width="32" height="32" rx="16" fill="#2563EB"/>
<path d="M22.3862 17.0001C24.6972 13.7554 25.8756 10.402 24.2369 8.76323C22.5981 7.12448 19.2447 8.30292 16 10.6139C12.7553 8.30292 9.40186 7.12448 7.76311 8.76323C6.12436 10.402 7.3028 13.7554 9.61373 17.0001C7.3028 20.2448 6.12436 23.5982 7.76311 25.237C8.29092 25.7648 8.99592 26.0001 9.81717 26.0001C11.5497 26.0001 13.7997 24.9529 16.0047 23.3864C18.2003 24.9529 20.4503 26.0001 22.1875 26.0001C23.0087 26.0001 23.7147 25.7639 24.2415 25.237C25.8756 23.5982 24.6972 20.2448 22.3862 17.0001ZM23.1765 9.82354C23.8928 10.5398 23.409 12.861 21.4403 15.756C20.8175 14.985 20.1544 14.2474 19.4537 13.5464C18.7526 12.8467 18.015 12.1845 17.244 11.5626C20.139 9.59386 22.4603 9.10636 23.1765 9.82354ZM20.5272 17.0001C19.8638 17.8393 19.1513 18.6385 18.3934 19.3935C17.6384 20.1514 16.8392 20.8639 16 21.5273C15.1608 20.8639 14.3616 20.1514 13.6065 19.3935C12.8487 18.6385 12.1362 17.8393 11.4728 17.0001C12.8038 15.3229 14.3228 13.8039 16 12.4729C16.8392 13.1363 17.6384 13.8488 18.3934 14.6067C19.1513 15.3617 19.8638 16.1609 20.5272 17.0001ZM8.82342 9.82354C9.02967 9.61636 9.36998 9.50948 9.81905 9.50948C10.9272 9.50948 12.6962 10.1564 14.755 11.5626C13.9848 12.185 13.2475 12.8472 12.5462 13.5464C11.8466 14.2475 11.1844 14.9851 10.5625 15.756C8.59373 12.861 8.10717 10.5398 8.82342 9.82354ZM8.82342 24.1767C8.10717 23.4604 8.59373 21.1392 10.5625 18.2442C11.1853 19.0152 11.8484 19.7528 12.549 20.4539C13.2497 21.153 13.9864 21.8151 14.7559 22.4376C11.8609 24.4064 9.53967 24.8939 8.82342 24.1767ZM23.1765 24.1767C22.4603 24.8939 20.139 24.4092 17.244 22.4404C18.0146 21.8171 18.7522 21.154 19.4537 20.4539C20.1534 19.7527 20.8156 19.0151 21.4375 18.2442C23.4062 21.1392 23.8928 23.4604 23.1765 24.1767ZM17.125 17.0001C17.125 17.2226 17.059 17.4401 16.9354 17.6251C16.8118 17.8101 16.6361 17.9543 16.4305 18.0395C16.2249 18.1246 15.9987 18.1469 15.7805 18.1035C15.5623 18.0601 15.3618 17.9529 15.2045 17.7956C15.0472 17.6383 14.94 17.4378 14.8966 17.2196C14.8532 17.0014 14.8755 16.7752 14.9606 16.5696C15.0458 16.364 15.19 16.1883 15.375 16.0647C15.56 15.9411 15.7775 15.8751 16 15.8751C16.2984 15.8751 16.5845 15.9936 16.7955 16.2046C17.0065 16.4156 17.125 16.7017 17.125 17.0001Z" fill="white"/>
</svg>
