<svg width="33" height="33" viewBox="0 0 33 33" fill="none" xmlns="http://www.w3.org/2000/svg">
<rect x="0.5" y="0.5" width="32" height="32" rx="16" fill="#2563EB"/>
<path d="M16.5 15.1101C17.53 15.1101 18.37 15.9501 18.37 17.0001C18.37 18.0001 17.53 18.8501 16.5 18.8501C15.47 18.8501 14.63 18.0001 14.63 17.0001C14.63 15.9501 15.47 15.1101 16.5 15.1101ZM11.87 25.0001C12.5 25.3801 13.88 24.8001 15.47 23.3001C14.95 22.7101 14.44 22.0701 13.96 21.4001C13.1542 21.3224 12.3531 21.2022 11.56 21.0401C11.05 23.1801 11.24 24.6501 11.87 25.0001ZM12.58 19.2601L12.29 18.7501C12.18 19.0401 12.07 19.3301 12 19.6101C12.27 19.6701 12.57 19.7201 12.88 19.7701L12.58 19.2601ZM19.12 18.5001L19.93 17.0001L19.12 15.5001C18.82 14.9701 18.5 14.5001 18.21 14.0301C17.67 14.0001 17.1 14.0001 16.5 14.0001C15.9 14.0001 15.33 14.0001 14.79 14.0301C14.5 14.5001 14.18 14.9701 13.88 15.5001L13.07 17.0001L13.88 18.5001C14.18 19.0301 14.5 19.5001 14.79 19.9701C15.33 20.0001 15.9 20.0001 16.5 20.0001C17.1 20.0001 17.67 20.0001 18.21 19.9701C18.5 19.5001 18.82 19.0301 19.12 18.5001ZM16.5 11.7801C16.31 12.0001 16.11 12.2301 15.91 12.5001H17.09C16.89 12.2301 16.69 12.0001 16.5 11.7801ZM16.5 22.2201C16.69 22.0001 16.89 21.7701 17.09 21.5001H15.91C16.11 21.7701 16.31 22.0001 16.5 22.2201ZM21.12 9.00009C20.5 8.62009 19.12 9.20009 17.53 10.7001C18.05 11.2901 18.56 11.9301 19.04 12.6001C19.86 12.6801 20.67 12.8001 21.44 12.9601C21.95 10.8201 21.76 9.35009 21.12 9.00009ZM20.42 14.7401L20.71 15.2501C20.82 14.9601 20.93 14.6701 21 14.3901C20.73 14.3301 20.43 14.2801 20.12 14.2301L20.42 14.7401ZM21.87 7.69009C23.34 8.53009 23.5 10.7401 22.88 13.3201C25.42 14.0701 27.25 15.3101 27.25 17.0001C27.25 18.6901 25.42 19.9301 22.88 20.6801C23.5 23.2601 23.34 25.4701 21.87 26.3101C20.41 27.1501 18.42 26.1901 16.5 24.3601C14.58 26.1901 12.59 27.1501 11.12 26.3101C9.66 25.4701 9.5 23.2601 10.12 20.6801C7.58 19.9301 5.75 18.6901 5.75 17.0001C5.75 15.3101 7.58 14.0701 10.12 13.3201C9.5 10.7401 9.66 8.53009 11.12 7.69009C12.59 6.85009 14.58 7.81009 16.5 9.64009C18.42 7.81009 20.41 6.85009 21.87 7.69009ZM21.58 17.0001C21.92 17.7501 22.22 18.5001 22.47 19.2601C24.57 18.6301 25.75 17.7301 25.75 17.0001C25.75 16.2701 24.57 15.3701 22.47 14.7401C22.22 15.5001 21.92 16.2501 21.58 17.0001ZM11.42 17.0001C11.08 16.2501 10.78 15.5001 10.53 14.7401C8.43 15.3701 7.25 16.2701 7.25 17.0001C7.25 17.7301 8.43 18.6301 10.53 19.2601C10.78 18.5001 11.08 17.7501 11.42 17.0001ZM20.42 19.2601L20.12 19.7701C20.43 19.7201 20.73 19.6701 21 19.6101C20.93 19.3301 20.82 19.0401 20.71 18.7501L20.42 19.2601ZM17.53 23.3001C19.12 24.8001 20.5 25.3801 21.12 25.0001C21.76 24.6501 21.95 23.1801 21.44 21.0401C20.67 21.2001 19.86 21.3201 19.04 21.4001C18.56 22.0701 18.05 22.7101 17.53 23.3001ZM12.58 14.7401L12.88 14.2301C12.57 14.2801 12.27 14.3301 12 14.3901C12.07 14.6701 12.18 14.9601 12.29 15.2501L12.58 14.7401ZM15.47 10.7001C13.88 9.20009 12.5 8.62009 11.87 9.00009C11.24 9.35009 11.05 10.8201 11.56 12.9601C12.3531 12.7979 13.1542 12.6778 13.96 12.6001C14.44 11.9301 14.95 11.2901 15.47 10.7001Z" fill="white"/>
</svg>
