<svg width="40" height="40" viewBox="0 0 40 40" fill="none" xmlns="http://www.w3.org/2000/svg">
<path d="M30 15C31.0494 14.2129 31.8246 13.1156 32.2157 11.8635C32.6068 10.6114 32.5941 9.26803 32.1793 8.02358C31.7645 6.77913 30.9686 5.69674 29.9044 4.92974C28.8403 4.16273 27.5618 3.75 26.25 3.75H15C13.6882 3.75 12.4097 4.16273 11.3456 4.92974C10.2814 5.69674 9.48556 6.77913 9.07074 8.02358C8.65592 9.26803 8.64318 10.6114 9.0343 11.8635C9.42543 13.1156 10.2006 14.2129 11.25 15C10.4555 15.5955 9.8142 16.3717 9.37936 17.2643C8.94453 18.157 8.72863 19.1404 8.74956 20.1331C8.77048 21.1258 9.02762 22.0992 9.49968 22.9728C9.97174 23.8463 10.6451 24.5948 11.4641 25.1562C10.5326 25.8645 9.79724 26.7987 9.32772 27.8705C8.8582 28.9424 8.67002 30.1163 8.78101 31.2812C8.89199 32.4461 9.29846 33.5633 9.96194 34.5272C10.6254 35.4911 11.5239 36.2697 12.5724 36.7892C13.6209 37.3088 14.7846 37.5522 15.9535 37.4963C17.1223 37.4404 18.2575 37.087 19.2516 36.4698C20.2457 35.8525 21.0658 34.9917 21.6343 33.9689C22.2027 32.9461 22.5007 31.7952 22.5 30.625V25C23.8261 25.9946 25.493 26.4216 27.1339 26.1872C28.7748 25.9528 30.2554 25.0761 31.25 23.75C32.2446 22.4239 32.6716 20.7571 32.4372 19.1161C32.2028 17.4752 31.3261 15.9946 30 15ZM30 10C30 10.9946 29.6049 11.9484 28.9017 12.6517C28.1984 13.3549 27.2446 13.75 26.25 13.75H22.5V6.25H26.25C27.2446 6.25 28.1984 6.64509 28.9017 7.34835C29.6049 8.05161 30 9.00544 30 10ZM11.25 10C11.25 9.00544 11.6451 8.05161 12.3484 7.34835C13.0516 6.64509 14.0054 6.25 15 6.25H20V13.75H15C14.0054 13.75 13.0516 13.3549 12.3484 12.6517C11.6451 11.9484 11.25 10.9946 11.25 10ZM15 23.75C14.0054 23.75 13.0516 23.3549 12.3484 22.6517C11.6451 21.9484 11.25 20.9946 11.25 20C11.25 19.0054 11.6451 18.0516 12.3484 17.3483C13.0516 16.6451 14.0054 16.25 15 16.25H20V23.75H15ZM20 30.625C20 31.4903 19.7434 32.3362 19.2627 33.0556C18.782 33.7751 18.0987 34.3358 17.2993 34.667C16.4998 34.9981 15.6202 35.0847 14.7715 34.9159C13.9228 34.7471 13.1433 34.3304 12.5314 33.7186C11.9196 33.1067 11.5029 32.3272 11.3341 31.4785C11.1653 30.6299 11.2519 29.7502 11.583 28.9508C11.9142 28.1513 12.4749 27.4681 13.1944 26.9873C13.9139 26.5066 14.7597 26.25 15.625 26.25H20V30.625ZM26.25 23.75C25.5083 23.75 24.7833 23.5301 24.1666 23.118C23.5499 22.706 23.0693 22.1203 22.7855 21.4351C22.5016 20.7498 22.4274 19.9958 22.5721 19.2684C22.7168 18.541 23.0739 17.8728 23.5984 17.3483C24.1228 16.8239 24.791 16.4667 25.5184 16.3221C26.2458 16.1774 26.9999 16.2516 27.6851 16.5355C28.3703 16.8193 28.956 17.2999 29.368 17.9166C29.7801 18.5333 30 19.2583 30 20C30 20.9946 29.6049 21.9484 28.9017 22.6517C28.1984 23.3549 27.2446 23.75 26.25 23.75Z" fill="#2563EB"/>
</svg>
