<svg width="20" height="20" viewBox="0 0 20 20" fill="none" xmlns="http://www.w3.org/2000/svg">
<path d="M18.1149 8.90624L4.98985 1.41483C4.76847 1.2902 4.51436 1.23599 4.26138 1.25942C4.00841 1.28285 3.76858 1.3828 3.57384 1.54597C3.37911 1.70914 3.23872 1.92778 3.17137 2.17274C3.10403 2.41771 3.11293 2.67739 3.19689 2.91717L5.58985 9.99999L3.19689 17.0836C3.13029 17.2721 3.10987 17.4738 3.13735 17.6718C3.16483 17.8698 3.2394 18.0584 3.35481 18.2216C3.47022 18.3848 3.62309 18.518 3.80061 18.6099C3.97812 18.7019 4.1751 18.7499 4.37501 18.75C4.5922 18.7495 4.80559 18.693 4.99454 18.5859L18.1133 11.082C18.3068 10.9736 18.468 10.8157 18.5803 10.6244C18.6926 10.4332 18.752 10.2155 18.7524 9.99371C18.7528 9.77192 18.6942 9.55401 18.5825 9.36236C18.4709 9.1707 18.3103 9.0122 18.1172 8.90311L18.1149 8.90624ZM4.37501 17.5C4.37535 17.4969 4.37535 17.4937 4.37501 17.4906L6.69845 10.625H11.25C11.4158 10.625 11.5747 10.5591 11.692 10.4419C11.8092 10.3247 11.875 10.1657 11.875 9.99999C11.875 9.83423 11.8092 9.67526 11.692 9.55804C11.5747 9.44083 11.4158 9.37499 11.25 9.37499H6.69845L4.3797 2.51249C4.37893 2.50806 4.37734 2.50382 4.37501 2.49999L17.5 9.98671L4.37501 17.5Z" fill="white"/>
</svg>
