<svg width="25" height="25" viewBox="0 0 25 25" fill="none" xmlns="http://www.w3.org/2000/svg">
<path d="M7.943 5.8501C8.582 5.8501 9.173 5.9001 9.713 6.0481C10.254 6.1471 10.697 6.3451 11.09 6.5921C11.484 6.83943 11.779 7.18576 11.975 7.6311C12.172 8.0761 12.271 8.6211 12.271 9.2141C12.271 9.9071 12.123 10.5001 11.779 10.9451C11.484 11.3911 10.992 11.7861 10.402 12.0831C11.238 12.3311 11.877 12.7761 12.271 13.3691C12.665 13.9621 12.91 14.7051 12.91 15.5461C12.91 16.2391 12.762 16.8321 12.516 17.3271C12.271 17.8221 11.877 18.2671 11.434 18.5641C10.9526 18.8821 10.4207 19.1161 9.861 19.2561C9.271 19.4051 8.681 19.5041 8.091 19.5041H1.5V5.8501H7.943ZM7.549 11.3901C8.09 11.3901 8.533 11.2421 8.877 10.9951C9.221 10.7481 9.369 10.3021 9.369 9.7581C9.369 9.4611 9.319 9.1641 9.221 8.9671C9.123 8.7701 8.975 8.6201 8.779 8.4721C8.5786 8.35954 8.36306 8.27636 8.139 8.2251C7.893 8.1751 7.648 8.1751 7.352 8.1751H4.5V11.3911L7.549 11.3901ZM7.697 17.2281C7.992 17.2281 8.287 17.1781 8.533 17.1291C8.779 17.0791 9.025 16.9811 9.221 16.8321C9.4206 16.6865 9.58808 16.5013 9.713 16.2881C9.811 16.0411 9.91 15.7441 9.91 15.3981C9.91 14.7051 9.713 14.2101 9.32 13.8641C8.926 13.5671 8.385 13.4191 7.746 13.4191H4.5V17.2291L7.697 17.2281ZM17.189 17.1781C17.5823 17.5741 18.1723 17.7721 18.959 17.7721C19.5 17.7721 19.992 17.6241 20.385 17.3771C20.779 17.0798 21.025 16.7828 21.123 16.4861H23.533C23.139 17.6731 22.549 18.5141 21.763 19.0581C20.975 19.5531 20.041 19.8501 18.91 19.8501C18.1865 19.8512 17.4691 19.7169 16.795 19.4541C16.1881 19.2278 15.6472 18.8538 15.221 18.3661C14.7633 17.9114 14.4256 17.3504 14.238 16.7331C13.992 16.0901 13.893 15.3981 13.893 14.6061C13.893 13.8641 13.992 13.1721 14.238 12.5281C14.474 11.9077 14.8244 11.3371 15.271 10.8461C15.713 10.4011 16.254 10.0061 16.844 9.7581C17.5008 9.4944 18.2023 9.35994 18.91 9.3621C19.746 9.3621 20.484 9.5111 21.123 9.8571C21.763 10.2031 22.254 10.5991 22.647 11.1931C23.041 11.7371 23.337 12.3801 23.533 13.0731C23.631 13.7651 23.68 14.4581 23.631 15.2491H16.5C16.5 16.0411 16.795 16.7831 17.189 17.1791M20.287 11.9851C19.943 11.6391 19.402 11.4411 18.762 11.4411C18.3867 11.4355 18.0156 11.5202 17.68 11.6881C17.385 11.8371 17.189 12.0351 16.992 12.2331C16.8098 12.4236 16.6899 12.6649 16.648 12.9251C16.598 13.1731 16.549 13.3701 16.549 13.5681H20.975C20.877 12.8261 20.631 12.3321 20.287 11.9851ZM15.959 6.7901H21.467V8.1261H15.96L15.959 6.7901Z" fill="#171717"/>
</svg>
