<svg width="32" height="33" viewBox="0 0 32 33" fill="none" xmlns="http://www.w3.org/2000/svg">
<rect y="0.5" width="32" height="32" rx="16" fill="#2563EB"/>
<path d="M8.50685 18.7571C8.00618 19.3936 7.87912 20.2473 8.17271 21.002C8.97304 22.3836 12.2994 22.0024 15.999 20.2467" stroke="#F7F7F7" stroke-width="1.5" stroke-linecap="round" stroke-linejoin="round"/>
<path d="M23.4931 14.2432C23.9932 13.6064 24.1202 12.7531 23.8272 11.9983C23.0269 10.6167 19.7005 10.9979 16.001 12.7536" stroke="#F7F7F7" stroke-width="1.5" stroke-linecap="round" stroke-linejoin="round"/>
<path d="M19.2564 18.3728C18.9382 22.4465 17.6007 25.5038 16 25.5038C15.3427 25.5038 14.7315 24.9816 14.2153 24.0922" stroke="#F7F7F7" stroke-width="1.5" stroke-linecap="round" stroke-linejoin="round"/>
<path d="M10.2916 11.1639C9.4878 11.0503 8.68337 11.3671 8.17276 11.9982C7.37242 13.3798 9.36225 16.0619 12.7437 18.3729" stroke="#F7F7F7" stroke-width="1.5" stroke-linecap="round" stroke-linejoin="round"/>
<path d="M21.7084 21.8364C22.5122 21.95 23.3166 21.6332 23.8273 21.0021C24.6276 19.6205 22.6378 16.9384 19.2563 14.6274" stroke="#F7F7F7" stroke-width="1.5" stroke-linecap="round" stroke-linejoin="round"/>
<path d="M12.7437 14.6273C13.0618 10.5536 14.3993 7.49634 16 7.49634C16.6573 7.49634 17.2685 8.01856 17.7848 8.90793" stroke="#F7F7F7" stroke-width="1.5" stroke-linecap="round" stroke-linejoin="round"/>
</svg>
