<svg width="32" height="33" viewBox="0 0 32 33" fill="none" xmlns="http://www.w3.org/2000/svg">
<rect y="0.5" width="32" height="32" rx="16" fill="#2563EB"/>
<path d="M18.25 14H13.75C13.5511 14 13.3603 14.079 13.2197 14.2197C13.079 14.3603 13 14.5511 13 14.75V19.25C13 19.4489 13.079 19.6397 13.2197 19.7803C13.3603 19.921 13.5511 20 13.75 20H18.25C18.4489 20 18.6397 19.921 18.7803 19.7803C18.921 19.6397 19 19.4489 19 19.25V14.75C19 14.5511 18.921 14.3603 18.7803 14.2197C18.6397 14.079 18.4489 14 18.25 14ZM17.5 18.5H14.5V15.5H17.5V18.5ZM25.75 18.5H24.25V15.5H25.75C25.9489 15.5 26.1397 15.421 26.2803 15.2803C26.421 15.1397 26.5 14.9489 26.5 14.75C26.5 14.5511 26.421 14.3603 26.2803 14.2197C26.1397 14.079 25.9489 14 25.75 14H24.25V10.25C24.25 9.85218 24.092 9.47064 23.8107 9.18934C23.5294 8.90804 23.1478 8.75 22.75 8.75H19V7.25C19 7.05109 18.921 6.86032 18.7803 6.71967C18.6397 6.57902 18.4489 6.5 18.25 6.5C18.0511 6.5 17.8603 6.57902 17.7197 6.71967C17.579 6.86032 17.5 7.05109 17.5 7.25V8.75H14.5V7.25C14.5 7.05109 14.421 6.86032 14.2803 6.71967C14.1397 6.57902 13.9489 6.5 13.75 6.5C13.5511 6.5 13.3603 6.57902 13.2197 6.71967C13.079 6.86032 13 7.05109 13 7.25V8.75H9.25C8.85218 8.75 8.47064 8.90804 8.18934 9.18934C7.90804 9.47064 7.75 9.85218 7.75 10.25V14H6.25C6.05109 14 5.86032 14.079 5.71967 14.2197C5.57902 14.3603 5.5 14.5511 5.5 14.75C5.5 14.9489 5.57902 15.1397 5.71967 15.2803C5.86032 15.421 6.05109 15.5 6.25 15.5H7.75V18.5H6.25C6.05109 18.5 5.86032 18.579 5.71967 18.7197C5.57902 18.8603 5.5 19.0511 5.5 19.25C5.5 19.4489 5.57902 19.6397 5.71967 19.7803C5.86032 19.921 6.05109 20 6.25 20H7.75V23.75C7.75 24.1478 7.90804 24.5294 8.18934 24.8107C8.47064 25.092 8.85218 25.25 9.25 25.25H13V26.75C13 26.9489 13.079 27.1397 13.2197 27.2803C13.3603 27.421 13.5511 27.5 13.75 27.5C13.9489 27.5 14.1397 27.421 14.2803 27.2803C14.421 27.1397 14.5 26.9489 14.5 26.75V25.25H17.5V26.75C17.5 26.9489 17.579 27.1397 17.7197 27.2803C17.8603 27.421 18.0511 27.5 18.25 27.5C18.4489 27.5 18.6397 27.421 18.7803 27.2803C18.921 27.1397 19 26.9489 19 26.75V25.25H22.75C23.1478 25.25 23.5294 25.092 23.8107 24.8107C24.092 24.5294 24.25 24.1478 24.25 23.75V20H25.75C25.9489 20 26.1397 19.921 26.2803 19.7803C26.421 19.6397 26.5 19.4489 26.5 19.25C26.5 19.0511 26.421 18.8603 26.2803 18.7197C26.1397 18.579 25.9489 18.5 25.75 18.5ZM22.75 23.75H9.25V10.25H22.75V19.2378C22.75 19.2378 22.75 19.2463 22.75 19.25C22.75 19.2537 22.75 19.2584 22.75 19.2622V23.75Z" fill="white"/>
</svg>
