<svg width="33" height="33" viewBox="0 0 33 33" fill="none" xmlns="http://www.w3.org/2000/svg">
<rect x="0.5" y="0.5" width="32" height="32" rx="16" fill="#2563EB"/>
<path fill-rule="evenodd" clip-rule="evenodd" d="M13.167 14.417C12.8278 14.417 12.4919 14.4838 12.1785 14.6136C11.8651 14.7434 11.5804 14.9337 11.3405 15.1735C11.1007 15.4134 10.9104 15.6981 10.7806 16.0115C10.6508 16.3249 10.584 16.6608 10.584 17C10.584 17.3392 10.6508 17.6751 10.7806 17.9885C10.9104 18.3019 11.1007 18.5866 11.3405 18.8265C11.5804 19.0663 11.8651 19.2566 12.1785 19.3864C12.4919 19.5162 12.8278 19.583 13.167 19.583H15.75V14.417H13.167ZM15.75 12.917H13.167C12.4818 12.917 11.8247 12.6448 11.3402 12.1603C10.8557 11.6758 10.5835 11.0187 10.5835 10.3335C10.5835 9.64831 10.8557 8.99119 11.3402 8.50669C11.8247 8.02219 12.4818 7.75 13.167 7.75H15.75V12.917ZM17.25 7.75V12.917H19.833C20.5094 12.9037 21.1535 12.6257 21.6272 12.1426C22.1008 11.6596 22.3661 11.01 22.3661 10.3335C22.3661 9.65698 22.1008 9.00745 21.6272 8.5244C21.1535 8.04135 20.5094 7.76331 19.833 7.75H17.25ZM19.833 14.416C19.155 14.4159 18.5041 14.6824 18.0209 15.158C17.5376 15.6336 17.2607 16.2801 17.25 16.958V17.041C17.2582 17.55 17.4167 18.0452 17.7056 18.4644C17.9944 18.8836 18.4006 19.2081 18.8733 19.3972C19.3459 19.5863 19.8639 19.6315 20.3621 19.5271C20.8604 19.4228 21.3167 19.1735 21.6738 18.8107C22.0308 18.4478 22.2727 17.9875 22.369 17.4877C22.4653 16.9878 22.4117 16.4706 22.2151 16.0011C22.0184 15.5315 21.6874 15.1306 21.2635 14.8486C20.8397 14.5666 20.342 14.4161 19.833 14.416ZM13.167 21.083C12.6559 21.0828 12.1562 21.2342 11.7311 21.518C11.306 21.8018 10.9747 22.2053 10.779 22.6775C10.5832 23.1496 10.5319 23.6692 10.6315 24.1705C10.7311 24.6718 10.9771 25.1323 11.3385 25.4938C11.6998 25.8553 12.1602 26.1015 12.6615 26.2013C13.1628 26.3011 13.6824 26.2499 14.1546 26.0544C14.6268 25.8589 15.0304 25.5277 15.3144 25.1027C15.5984 24.6777 15.75 24.1781 15.75 23.667V21.083H13.167Z" fill="white"/>
</svg>
