<svg width="67" height="68" viewBox="0 0 67 68" fill="none" xmlns="http://www.w3.org/2000/svg">
<rect x="34.9973" y="25.5391" width="5.79768" height="3.88958" fill="white"/>
<rect x="48.2806" y="25.6128" width="3.22909" height="3.96297" fill="white"/>
<mask id="path-3-outside-1_65_104" maskUnits="userSpaceOnUse" x="6.10352e-05" y="0.302734" width="67" height="67" fill="black">
<rect fill="white" x="6.10352e-05" y="0.302734" width="67" height="67"/>
<path d="M52.6818 53.7474C52.3025 54.2287 51.9636 54.7062 51.5766 55.1395C48.9522 58.0777 45.7135 60.1341 42.1283 61.6957C41.6931 61.8863 41.3215 61.869 40.9076 61.6418C38.9532 60.5732 37.1567 59.2869 35.47 57.8351C32.7975 55.5342 30.1923 53.1505 27.2714 51.1557C25.2131 49.7482 23.1278 48.3792 21.0752 46.9639C20.1664 46.3362 19.3192 45.62 18.6433 44.7304C17.8886 43.7369 18.0368 42.905 19.1016 42.2504C19.9469 41.7305 20.8961 41.4802 21.8685 41.407C22.7966 41.3358 23.7343 41.3916 24.7336 41.3916C24.7336 40.8563 24.7606 40.348 24.7124 39.8455C24.7028 39.7376 24.4255 39.5952 24.258 39.5721C23.7439 39.5066 23.224 39.4642 22.7042 39.4604C21.1041 39.4469 19.5194 39.5567 17.9579 39.9552C15.4856 40.5887 14.001 42.2119 13.2 44.5686C12.8304 45.6546 12.6243 46.7675 12.5223 47.9016C12.4241 48.9876 12.0409 49.9503 11.4228 50.8457C11.0512 51.3848 10.7451 51.9702 10.4235 52.542C10.3465 52.6787 10.3272 52.8462 10.2887 52.9733C11.1244 52.7095 11.935 52.4149 12.7668 52.1993C14.0511 51.8681 15.3566 51.922 16.6563 52.1107C20.5476 52.6749 24.025 54.35 27.4524 56.1561C30.1134 57.5579 32.7686 58.9692 35.4238 60.3825C35.6664 60.5115 35.9052 60.6637 36.1131 60.8427C36.2094 60.9255 36.3076 61.1412 36.2653 61.2182C36.2017 61.3318 36.0034 61.4492 35.8782 61.4358C35.3179 61.3703 34.7461 61.3145 34.2069 61.1546C31.777 60.4384 29.4934 59.3543 27.2021 58.2934C25.1283 57.3326 23.0777 56.314 20.9866 55.3917C19.1228 54.5695 17.1723 53.9861 15.1525 53.6915C13.4696 53.447 11.9523 53.9842 10.5352 54.8487C8.12835 56.3179 6.34537 58.3858 4.88394 60.7599C4.65095 61.1373 4.43145 61.5205 4.19269 61.894C4.11182 62.0211 4.01555 62.1886 3.89425 62.2252C3.67089 62.2926 3.40325 62.3407 3.19145 62.2753C2.95462 62.2021 2.98157 61.9556 3.04126 61.7207C3.36282 60.4884 4.0117 59.4217 4.72412 58.3916C5.88711 56.7087 7.28692 55.2473 9.00059 54.0843C8.61935 52.9753 9.00637 51.9971 9.52817 51.0536C9.76115 50.6339 10.0038 50.2122 10.2964 49.8348C10.8953 49.0646 11.0358 48.1616 11.1379 47.2412C11.3362 45.4544 11.781 43.7446 12.6532 42.158C13.7199 40.2171 15.4278 39.1639 17.515 38.644C19.3481 38.1876 21.2081 38.0144 23.0931 38.1684C23.2548 38.1819 23.4204 38.1684 23.6573 38.1684C23.0315 37.4329 22.6175 36.603 21.6779 36.2121C20.2877 35.6345 19.3461 34.5312 18.6241 33.2469C17.6325 31.4889 17.0028 29.6154 17.1068 27.5725C17.1376 26.9564 17.3956 26.3556 17.5246 25.7414C17.5709 25.52 17.6132 25.26 17.542 25.0579C17.0337 23.6195 16.5427 22.1735 15.9554 20.7679C15.2853 19.1678 15.243 17.5755 15.8014 15.96C16.2577 14.6353 16.6986 13.2971 17.6171 12.1938C18.5875 11.0289 19.7505 10.224 21.3429 10.1971C21.4988 10.1952 21.701 10.0219 21.7992 9.8736C22.4539 8.87621 23.2414 8.0136 24.2234 7.32621C25.4942 6.43856 26.946 6.04577 28.4247 5.67993C29.84 5.33142 31.2494 4.93477 32.6338 4.48036C34.1338 3.98744 35.6183 3.44831 37.2068 3.32893C38.9821 3.19607 40.6476 3.56961 42.215 4.42645C43.2663 5.00216 44.3137 5.58173 45.5037 5.85707C46.7533 6.14589 47.9548 6.14589 49.1158 5.52396C49.4894 5.32372 49.9804 5.64527 49.9496 6.09005C49.9284 6.40776 49.809 6.72546 49.6973 7.03161C49.576 7.36086 49.4143 7.67279 49.2776 7.97509C49.9303 8.1426 50.5715 8.26776 51.1876 8.47186C53.1747 9.12459 54.2896 10.5571 54.7671 12.5481C54.8499 12.8908 54.9462 13.2316 55.0771 13.557C55.3409 14.2117 55.8357 14.5486 56.552 14.5352C56.6021 14.5352 56.6541 14.5352 56.7041 14.5352C57.4011 14.5352 57.5552 14.7778 57.1855 15.3766C56.5674 16.3759 55.6624 16.9401 54.486 17.0498C54.4128 17.0575 54.3377 17.0498 54.3281 17.0498C54.2954 17.6564 54.3127 18.234 54.2241 18.7962C54.1201 19.4528 53.7659 19.9977 53.2152 20.3905C53.065 20.4983 53.0245 20.5888 53.065 20.7929C53.2229 21.5824 53.3403 22.3795 53.4655 23.1401C54.226 23.3403 55.0213 23.5252 55.8011 23.762C56.2844 23.9084 56.6001 24.2838 56.6579 24.7806C56.7157 25.2716 56.5809 25.7299 56.1419 26.0495C56.0591 26.1092 56.0109 26.2459 55.9878 26.3556C55.7626 27.4936 55.5546 28.6354 55.0675 29.7021C54.794 30.3009 54.4128 30.8035 53.8698 31.1963C53.7447 31.2868 53.6965 31.564 53.7081 31.7489C53.8467 33.9824 53.4289 36.1274 52.7184 38.2281C52.0849 40.1035 51.1973 41.8557 50.2268 43.3498C50.9142 44.12 51.5727 44.8536 52.2274 45.593C53.038 46.5076 53.6638 47.5242 53.8429 48.7565C54.0162 49.9446 53.8563 51.1018 53.4193 52.2205C53.3962 52.2782 53.3846 52.3379 53.3808 52.3476C54.3608 52.8559 55.3505 53.3084 56.2805 53.8629C59.3786 55.7036 61.5467 58.38 63.062 61.611C63.3932 62.3176 63.6493 63.0589 63.94 63.7829C63.9631 63.8407 63.9805 63.9042 63.9882 63.9658C64.0498 64.453 63.8688 64.8227 63.5164 64.9382C63.1313 65.0653 62.8213 64.9209 62.5845 64.4279C62.0954 63.4036 61.6622 62.3523 61.1616 61.3337C59.3574 57.6715 56.4846 55.1953 52.678 53.7358L52.6818 53.7474ZM40.4377 50.1256C40.2645 50.1025 40.1143 50.089 39.966 50.0601C38.1638 49.7212 36.5233 48.9915 34.9925 47.9998C34.128 47.4395 33.2923 46.8407 32.6377 46.032C32.3007 45.6142 32.2526 45.2637 32.4528 45.077C32.6569 44.8864 32.9977 44.9692 33.4233 45.2445C34.463 45.9165 35.4816 46.6366 36.5733 47.2162C38.3525 48.1616 40.2336 48.8162 42.2977 48.7123C43.1373 48.6699 43.919 48.4369 44.6006 47.9363C45.7386 47.1045 46.6782 46.0724 47.5119 44.946C50.0112 41.5649 52.0772 37.9874 52.4469 33.6763C52.5027 33.0293 52.4546 32.3746 52.4546 31.7123C51.1029 31.9857 49.8109 31.8682 48.5767 31.4889C48.6075 32.0454 48.6768 32.5826 48.6595 33.1179C48.6325 34.0036 47.9163 34.897 47.0614 35.1319C46.037 35.413 45.1166 35.0299 44.2271 34.5928C44.1058 34.5331 43.9999 34.2077 44.0557 34.0825C44.1231 33.9343 44.3773 33.7783 44.5448 33.7841C44.9973 33.7976 45.4497 33.8765 45.8965 33.9612C46.9381 34.1596 47.562 33.4972 47.4368 32.6808C47.3483 32.0993 47.1673 31.5313 47.0152 30.9614C46.6185 29.4768 46.1987 28 45.8252 26.5116C45.6519 25.8203 45.6904 25.8107 44.9395 25.83C44.8625 25.8319 44.7874 25.828 44.7104 25.8358C44.0018 25.9089 43.8978 26.0399 43.7784 26.7407C43.5859 27.8748 43.2874 28.982 42.7907 30.0275C42.4056 30.8362 41.8029 31.3811 40.9364 31.6507C39.0033 32.2514 37.0566 32.3207 35.0946 31.8355C33.7256 31.4966 32.8899 30.634 32.5703 29.2515C32.3431 28.2695 32.2256 27.2799 32.2776 26.2767C32.293 25.984 32.2121 25.7587 31.956 25.6605C31.7346 25.5758 31.4766 25.5354 31.2398 25.5489C30.3425 25.6028 29.4452 25.6836 28.5499 25.7587C27.9722 25.8088 27.3946 25.8666 26.8035 25.9224C26.8439 26.2882 26.8901 26.6136 26.9113 26.941C26.9325 27.2702 26.9729 27.6091 26.9209 27.9287C26.8497 28.3716 26.7727 28.8376 26.5705 29.2284C26.2393 29.8677 25.55 29.8927 25.1168 29.3189C24.9454 29.0917 24.8299 28.8164 24.7144 28.5526C24.1194 27.1874 23.2664 26.0244 22.0322 25.1715C21.5161 24.8153 20.952 24.538 20.2973 24.667C19.3808 24.8461 18.8783 25.5026 18.549 26.3056C18.0696 27.4705 18.162 28.6681 18.4739 29.8484C18.9591 31.6834 19.7813 33.3393 21.3294 34.5158C22.2228 35.1955 23.2202 35.6826 24.4082 35.569C24.8453 35.5266 25.1418 35.7635 25.3267 36.214C26.2297 38.4148 26.3337 40.6831 25.9062 42.9975C25.629 44.4993 25.2362 45.9665 24.568 47.3991C29.6397 50.2584 33.7833 54.2884 38.1695 58.0046C38.9378 57.4096 39.2305 56.5932 39.2805 55.6767C39.3499 54.4097 39.4962 53.1582 39.8794 51.9432C40.0681 51.3463 40.2471 50.7475 40.4377 50.1294V50.1256ZM35.6587 14.8721C35.6414 14.8895 35.6241 14.9068 35.6048 14.9241C35.8571 15.1975 36.0977 15.4786 36.3615 15.7405C37.1028 16.4741 37.9847 16.9786 38.9609 17.3348C39.0745 17.3772 39.1573 17.5042 39.2555 17.5928C39.1535 17.6756 39.0591 17.8219 38.9513 17.8316C38.3274 17.8855 37.6901 17.9914 37.0759 17.924C35.5259 17.7546 34.1453 17.0922 32.8495 16.2546C32.2853 15.8907 31.7423 15.4921 31.1839 15.1051C31.336 16.1083 31.311 16.5685 31.0761 17.3252C30.5967 18.8655 29.528 19.9034 28.1898 20.714C28.0743 20.7833 27.9357 20.8546 27.8741 20.9624C27.2656 22.031 27.1173 23.2152 26.9864 24.4475C28.2649 24.2934 29.4934 24.1567 30.718 23.995C31.1782 23.9334 31.6846 23.9103 32.0774 23.7004C32.8302 23.298 33.6216 23.0592 34.4457 22.9514C36.7871 22.6433 39.1303 22.6818 41.4544 23.1074C42.4133 23.2845 43.376 23.5502 43.7765 24.5322C44.5236 24.5322 45.2264 24.538 45.9292 24.5264C46.037 24.5264 46.1853 24.4725 46.243 24.3936C46.5723 23.9372 47.0267 23.6542 47.5562 23.5541C48.4342 23.3885 49.3238 23.2595 50.2134 23.1748C50.8276 23.117 51.4514 23.1632 52.0618 23.1632C52.1581 22.4142 52.0387 22.1446 51.3917 21.9656C50.8507 21.8154 50.2788 21.7268 49.7166 21.7114C49.1389 21.6941 48.5575 21.7961 47.9779 21.852C47.7199 21.877 47.4041 21.9309 47.3097 21.6498C47.2385 21.4341 47.3059 21.1415 47.3925 20.9142C47.4599 20.739 47.6371 20.5927 47.7911 20.4656C48.3283 20.0228 48.9714 19.8033 49.6511 19.8244C50.3558 19.8456 51.0586 19.9881 51.746 20.0747C51.2916 18.4188 50.3 17.019 48.9464 15.8021C48.8906 15.9754 48.8598 16.0832 48.8193 16.1891C48.3707 17.3714 47.6159 18.261 46.3894 18.6846C45.8945 18.8559 45.6153 18.673 45.5422 18.1531C45.3978 17.1442 45.03 16.2277 44.2251 15.5807C43.8246 15.2591 43.3067 15.0781 42.8292 14.8625C42.7271 14.8163 42.5692 14.8952 42.4364 14.9164C42.471 15.0435 42.4941 15.1763 42.5461 15.2977C42.5846 15.3881 42.6597 15.4652 42.7214 15.5441C42.964 15.8522 43.2297 16.1468 43.4492 16.4703C43.6899 16.8265 43.5686 17.0826 43.1469 17.1384C42.8715 17.175 42.5904 17.1923 42.3151 17.1711C41.722 17.1249 41.1309 17.0652 40.5417 16.9844C39.2555 16.8053 38.0155 16.478 36.9064 15.7713C36.4771 15.496 36.0766 15.1744 35.6645 14.8721H35.6587ZM49.2968 44.7824C48.8443 45.3773 48.4265 45.9261 47.9856 46.5057C48.0299 46.5384 48.0876 46.5711 48.1319 46.6154C48.958 47.4472 49.2872 48.4292 49.0523 49.5922C48.8521 50.5838 48.2937 51.379 47.6544 52.1184C46.0563 53.9707 44.202 55.5554 42.3209 57.1073C41.4717 57.8082 40.6033 58.4859 39.6945 59.2138C40.2683 59.622 40.8074 60.0186 41.3658 60.3825C41.4679 60.448 41.6854 60.4307 41.801 60.3671C43.971 59.1637 46.1025 57.8987 48.0472 56.3448C49.4008 55.2627 50.6755 54.0978 51.5901 52.6056C52.6664 50.8495 52.9552 49.0377 51.696 47.2431C51.255 46.6154 50.6967 46.0686 50.1652 45.5083C49.9072 45.2368 49.5914 45.025 49.2988 44.7824H49.2968ZM37.5053 23.943C36.3538 24.0932 35.239 24.228 34.128 24.3859C33.7294 24.4436 33.4829 24.6901 33.4098 25.106C33.1556 26.5828 33.2865 28.0269 33.7775 29.4383C34.0221 30.1373 34.5092 30.5628 35.2332 30.7399C36.7851 31.1192 38.3428 31.1289 39.9025 30.842C40.6438 30.7053 41.2965 30.403 41.6623 29.6694C42.3343 28.3235 42.6886 26.9025 42.6232 25.3987C42.6135 25.1753 42.4133 24.9154 42.2304 24.7575C42.0494 24.6015 41.7856 24.5014 41.5449 24.4667C40.1951 24.2761 38.8415 24.1125 37.5053 23.943ZM52.0214 24.3166C50.637 24.28 49.2872 24.3069 47.9625 24.642C47.4195 24.7787 47.071 25.1368 47.0055 25.6952C46.9593 26.0822 46.9285 26.5 47.0248 26.8697C47.2828 27.8671 47.6082 28.8472 47.924 29.8292C47.9644 29.9563 48.0992 30.0737 48.2186 30.1488C49.3642 30.8766 50.637 30.8978 51.9232 30.7592C52.4219 30.7053 52.4161 30.6648 52.3429 30.1045C52.3217 29.9409 52.3275 29.7753 52.316 29.6097C52.2197 28.2965 52.1119 26.9833 52.0271 25.6702C51.9983 25.2312 52.0233 24.7883 52.0233 24.3185L52.0214 24.3166ZM53.606 30.0294C54.2183 29.3921 54.9077 27.2375 54.8152 26.3113C54.3223 26.3884 53.8313 26.4654 53.3134 26.5462C53.4116 27.7112 53.5059 28.851 53.6041 30.0275L53.606 30.0294ZM53.348 25.3351C53.839 25.2812 54.2992 25.2312 54.8711 25.1695C54.7478 24.9385 54.6978 24.6824 54.5726 24.6381C54.1914 24.5014 53.7793 24.4456 53.348 24.3512V25.3351Z"/>
</mask>
<path d="M52.6818 53.7474C52.3025 54.2287 51.9636 54.7062 51.5766 55.1395C48.9522 58.0777 45.7135 60.1341 42.1283 61.6957C41.6931 61.8863 41.3215 61.869 40.9076 61.6418C38.9532 60.5732 37.1567 59.2869 35.47 57.8351C32.7975 55.5342 30.1923 53.1505 27.2714 51.1557C25.2131 49.7482 23.1278 48.3792 21.0752 46.9639C20.1664 46.3362 19.3192 45.62 18.6433 44.7304C17.8886 43.7369 18.0368 42.905 19.1016 42.2504C19.9469 41.7305 20.8961 41.4802 21.8685 41.407C22.7966 41.3358 23.7343 41.3916 24.7336 41.3916C24.7336 40.8563 24.7606 40.348 24.7124 39.8455C24.7028 39.7376 24.4255 39.5952 24.258 39.5721C23.7439 39.5066 23.224 39.4642 22.7042 39.4604C21.1041 39.4469 19.5194 39.5567 17.9579 39.9552C15.4856 40.5887 14.001 42.2119 13.2 44.5686C12.8304 45.6546 12.6243 46.7675 12.5223 47.9016C12.4241 48.9876 12.0409 49.9503 11.4228 50.8457C11.0512 51.3848 10.7451 51.9702 10.4235 52.542C10.3465 52.6787 10.3272 52.8462 10.2887 52.9733C11.1244 52.7095 11.935 52.4149 12.7668 52.1993C14.0511 51.8681 15.3566 51.922 16.6563 52.1107C20.5476 52.6749 24.025 54.35 27.4524 56.1561C30.1134 57.5579 32.7686 58.9692 35.4238 60.3825C35.6664 60.5115 35.9052 60.6637 36.1131 60.8427C36.2094 60.9255 36.3076 61.1412 36.2653 61.2182C36.2017 61.3318 36.0034 61.4492 35.8782 61.4358C35.3179 61.3703 34.7461 61.3145 34.2069 61.1546C31.777 60.4384 29.4934 59.3543 27.2021 58.2934C25.1283 57.3326 23.0777 56.314 20.9866 55.3917C19.1228 54.5695 17.1723 53.9861 15.1525 53.6915C13.4696 53.447 11.9523 53.9842 10.5352 54.8487C8.12835 56.3179 6.34537 58.3858 4.88394 60.7599C4.65095 61.1373 4.43145 61.5205 4.19269 61.894C4.11182 62.0211 4.01555 62.1886 3.89425 62.2252C3.67089 62.2926 3.40325 62.3407 3.19145 62.2753C2.95462 62.2021 2.98157 61.9556 3.04126 61.7207C3.36282 60.4884 4.0117 59.4217 4.72412 58.3916C5.88711 56.7087 7.28692 55.2473 9.00059 54.0843C8.61935 52.9753 9.00637 51.9971 9.52817 51.0536C9.76115 50.6339 10.0038 50.2122 10.2964 49.8348C10.8953 49.0646 11.0358 48.1616 11.1379 47.2412C11.3362 45.4544 11.781 43.7446 12.6532 42.158C13.7199 40.2171 15.4278 39.1639 17.515 38.644C19.3481 38.1876 21.2081 38.0144 23.0931 38.1684C23.2548 38.1819 23.4204 38.1684 23.6573 38.1684C23.0315 37.4329 22.6175 36.603 21.6779 36.2121C20.2877 35.6345 19.3461 34.5312 18.6241 33.2469C17.6325 31.4889 17.0028 29.6154 17.1068 27.5725C17.1376 26.9564 17.3956 26.3556 17.5246 25.7414C17.5709 25.52 17.6132 25.26 17.542 25.0579C17.0337 23.6195 16.5427 22.1735 15.9554 20.7679C15.2853 19.1678 15.243 17.5755 15.8014 15.96C16.2577 14.6353 16.6986 13.2971 17.6171 12.1938C18.5875 11.0289 19.7505 10.224 21.3429 10.1971C21.4988 10.1952 21.701 10.0219 21.7992 9.8736C22.4539 8.87621 23.2414 8.0136 24.2234 7.32621C25.4942 6.43856 26.946 6.04577 28.4247 5.67993C29.84 5.33142 31.2494 4.93477 32.6338 4.48036C34.1338 3.98744 35.6183 3.44831 37.2068 3.32893C38.9821 3.19607 40.6476 3.56961 42.215 4.42645C43.2663 5.00216 44.3137 5.58173 45.5037 5.85707C46.7533 6.14589 47.9548 6.14589 49.1158 5.52396C49.4894 5.32372 49.9804 5.64527 49.9496 6.09005C49.9284 6.40776 49.809 6.72546 49.6973 7.03161C49.576 7.36086 49.4143 7.67279 49.2776 7.97509C49.9303 8.1426 50.5715 8.26776 51.1876 8.47186C53.1747 9.12459 54.2896 10.5571 54.7671 12.5481C54.8499 12.8908 54.9462 13.2316 55.0771 13.557C55.3409 14.2117 55.8357 14.5486 56.552 14.5352C56.6021 14.5352 56.6541 14.5352 56.7041 14.5352C57.4011 14.5352 57.5552 14.7778 57.1855 15.3766C56.5674 16.3759 55.6624 16.9401 54.486 17.0498C54.4128 17.0575 54.3377 17.0498 54.3281 17.0498C54.2954 17.6564 54.3127 18.234 54.2241 18.7962C54.1201 19.4528 53.7659 19.9977 53.2152 20.3905C53.065 20.4983 53.0245 20.5888 53.065 20.7929C53.2229 21.5824 53.3403 22.3795 53.4655 23.1401C54.226 23.3403 55.0213 23.5252 55.8011 23.762C56.2844 23.9084 56.6001 24.2838 56.6579 24.7806C56.7157 25.2716 56.5809 25.7299 56.1419 26.0495C56.0591 26.1092 56.0109 26.2459 55.9878 26.3556C55.7626 27.4936 55.5546 28.6354 55.0675 29.7021C54.794 30.3009 54.4128 30.8035 53.8698 31.1963C53.7447 31.2868 53.6965 31.564 53.7081 31.7489C53.8467 33.9824 53.4289 36.1274 52.7184 38.2281C52.0849 40.1035 51.1973 41.8557 50.2268 43.3498C50.9142 44.12 51.5727 44.8536 52.2274 45.593C53.038 46.5076 53.6638 47.5242 53.8429 48.7565C54.0162 49.9446 53.8563 51.1018 53.4193 52.2205C53.3962 52.2782 53.3846 52.3379 53.3808 52.3476C54.3608 52.8559 55.3505 53.3084 56.2805 53.8629C59.3786 55.7036 61.5467 58.38 63.062 61.611C63.3932 62.3176 63.6493 63.0589 63.94 63.7829C63.9631 63.8407 63.9805 63.9042 63.9882 63.9658C64.0498 64.453 63.8688 64.8227 63.5164 64.9382C63.1313 65.0653 62.8213 64.9209 62.5845 64.4279C62.0954 63.4036 61.6622 62.3523 61.1616 61.3337C59.3574 57.6715 56.4846 55.1953 52.678 53.7358L52.6818 53.7474ZM40.4377 50.1256C40.2645 50.1025 40.1143 50.089 39.966 50.0601C38.1638 49.7212 36.5233 48.9915 34.9925 47.9998C34.128 47.4395 33.2923 46.8407 32.6377 46.032C32.3007 45.6142 32.2526 45.2637 32.4528 45.077C32.6569 44.8864 32.9977 44.9692 33.4233 45.2445C34.463 45.9165 35.4816 46.6366 36.5733 47.2162C38.3525 48.1616 40.2336 48.8162 42.2977 48.7123C43.1373 48.6699 43.919 48.4369 44.6006 47.9363C45.7386 47.1045 46.6782 46.0724 47.5119 44.946C50.0112 41.5649 52.0772 37.9874 52.4469 33.6763C52.5027 33.0293 52.4546 32.3746 52.4546 31.7123C51.1029 31.9857 49.8109 31.8682 48.5767 31.4889C48.6075 32.0454 48.6768 32.5826 48.6595 33.1179C48.6325 34.0036 47.9163 34.897 47.0614 35.1319C46.037 35.413 45.1166 35.0299 44.2271 34.5928C44.1058 34.5331 43.9999 34.2077 44.0557 34.0825C44.1231 33.9343 44.3773 33.7783 44.5448 33.7841C44.9973 33.7976 45.4497 33.8765 45.8965 33.9612C46.9381 34.1596 47.562 33.4972 47.4368 32.6808C47.3483 32.0993 47.1673 31.5313 47.0152 30.9614C46.6185 29.4768 46.1987 28 45.8252 26.5116C45.6519 25.8203 45.6904 25.8107 44.9395 25.83C44.8625 25.8319 44.7874 25.828 44.7104 25.8358C44.0018 25.9089 43.8978 26.0399 43.7784 26.7407C43.5859 27.8748 43.2874 28.982 42.7907 30.0275C42.4056 30.8362 41.8029 31.3811 40.9364 31.6507C39.0033 32.2514 37.0566 32.3207 35.0946 31.8355C33.7256 31.4966 32.8899 30.634 32.5703 29.2515C32.3431 28.2695 32.2256 27.2799 32.2776 26.2767C32.293 25.984 32.2121 25.7587 31.956 25.6605C31.7346 25.5758 31.4766 25.5354 31.2398 25.5489C30.3425 25.6028 29.4452 25.6836 28.5499 25.7587C27.9722 25.8088 27.3946 25.8666 26.8035 25.9224C26.8439 26.2882 26.8901 26.6136 26.9113 26.941C26.9325 27.2702 26.9729 27.6091 26.9209 27.9287C26.8497 28.3716 26.7727 28.8376 26.5705 29.2284C26.2393 29.8677 25.55 29.8927 25.1168 29.3189C24.9454 29.0917 24.8299 28.8164 24.7144 28.5526C24.1194 27.1874 23.2664 26.0244 22.0322 25.1715C21.5161 24.8153 20.952 24.538 20.2973 24.667C19.3808 24.8461 18.8783 25.5026 18.549 26.3056C18.0696 27.4705 18.162 28.6681 18.4739 29.8484C18.9591 31.6834 19.7813 33.3393 21.3294 34.5158C22.2228 35.1955 23.2202 35.6826 24.4082 35.569C24.8453 35.5266 25.1418 35.7635 25.3267 36.214C26.2297 38.4148 26.3337 40.6831 25.9062 42.9975C25.629 44.4993 25.2362 45.9665 24.568 47.3991C29.6397 50.2584 33.7833 54.2884 38.1695 58.0046C38.9378 57.4096 39.2305 56.5932 39.2805 55.6767C39.3499 54.4097 39.4962 53.1582 39.8794 51.9432C40.0681 51.3463 40.2471 50.7475 40.4377 50.1294V50.1256ZM35.6587 14.8721C35.6414 14.8895 35.6241 14.9068 35.6048 14.9241C35.8571 15.1975 36.0977 15.4786 36.3615 15.7405C37.1028 16.4741 37.9847 16.9786 38.9609 17.3348C39.0745 17.3772 39.1573 17.5042 39.2555 17.5928C39.1535 17.6756 39.0591 17.8219 38.9513 17.8316C38.3274 17.8855 37.6901 17.9914 37.0759 17.924C35.5259 17.7546 34.1453 17.0922 32.8495 16.2546C32.2853 15.8907 31.7423 15.4921 31.1839 15.1051C31.336 16.1083 31.311 16.5685 31.0761 17.3252C30.5967 18.8655 29.528 19.9034 28.1898 20.714C28.0743 20.7833 27.9357 20.8546 27.8741 20.9624C27.2656 22.031 27.1173 23.2152 26.9864 24.4475C28.2649 24.2934 29.4934 24.1567 30.718 23.995C31.1782 23.9334 31.6846 23.9103 32.0774 23.7004C32.8302 23.298 33.6216 23.0592 34.4457 22.9514C36.7871 22.6433 39.1303 22.6818 41.4544 23.1074C42.4133 23.2845 43.376 23.5502 43.7765 24.5322C44.5236 24.5322 45.2264 24.538 45.9292 24.5264C46.037 24.5264 46.1853 24.4725 46.243 24.3936C46.5723 23.9372 47.0267 23.6542 47.5562 23.5541C48.4342 23.3885 49.3238 23.2595 50.2134 23.1748C50.8276 23.117 51.4514 23.1632 52.0618 23.1632C52.1581 22.4142 52.0387 22.1446 51.3917 21.9656C50.8507 21.8154 50.2788 21.7268 49.7166 21.7114C49.1389 21.6941 48.5575 21.7961 47.9779 21.852C47.7199 21.877 47.4041 21.9309 47.3097 21.6498C47.2385 21.4341 47.3059 21.1415 47.3925 20.9142C47.4599 20.739 47.6371 20.5927 47.7911 20.4656C48.3283 20.0228 48.9714 19.8033 49.6511 19.8244C50.3558 19.8456 51.0586 19.9881 51.746 20.0747C51.2916 18.4188 50.3 17.019 48.9464 15.8021C48.8906 15.9754 48.8598 16.0832 48.8193 16.1891C48.3707 17.3714 47.6159 18.261 46.3894 18.6846C45.8945 18.8559 45.6153 18.673 45.5422 18.1531C45.3978 17.1442 45.03 16.2277 44.2251 15.5807C43.8246 15.2591 43.3067 15.0781 42.8292 14.8625C42.7271 14.8163 42.5692 14.8952 42.4364 14.9164C42.471 15.0435 42.4941 15.1763 42.5461 15.2977C42.5846 15.3881 42.6597 15.4652 42.7214 15.5441C42.964 15.8522 43.2297 16.1468 43.4492 16.4703C43.6899 16.8265 43.5686 17.0826 43.1469 17.1384C42.8715 17.175 42.5904 17.1923 42.3151 17.1711C41.722 17.1249 41.1309 17.0652 40.5417 16.9844C39.2555 16.8053 38.0155 16.478 36.9064 15.7713C36.4771 15.496 36.0766 15.1744 35.6645 14.8721H35.6587ZM49.2968 44.7824C48.8443 45.3773 48.4265 45.9261 47.9856 46.5057C48.0299 46.5384 48.0876 46.5711 48.1319 46.6154C48.958 47.4472 49.2872 48.4292 49.0523 49.5922C48.8521 50.5838 48.2937 51.379 47.6544 52.1184C46.0563 53.9707 44.202 55.5554 42.3209 57.1073C41.4717 57.8082 40.6033 58.4859 39.6945 59.2138C40.2683 59.622 40.8074 60.0186 41.3658 60.3825C41.4679 60.448 41.6854 60.4307 41.801 60.3671C43.971 59.1637 46.1025 57.8987 48.0472 56.3448C49.4008 55.2627 50.6755 54.0978 51.5901 52.6056C52.6664 50.8495 52.9552 49.0377 51.696 47.2431C51.255 46.6154 50.6967 46.0686 50.1652 45.5083C49.9072 45.2368 49.5914 45.025 49.2988 44.7824H49.2968ZM37.5053 23.943C36.3538 24.0932 35.239 24.228 34.128 24.3859C33.7294 24.4436 33.4829 24.6901 33.4098 25.106C33.1556 26.5828 33.2865 28.0269 33.7775 29.4383C34.0221 30.1373 34.5092 30.5628 35.2332 30.7399C36.7851 31.1192 38.3428 31.1289 39.9025 30.842C40.6438 30.7053 41.2965 30.403 41.6623 29.6694C42.3343 28.3235 42.6886 26.9025 42.6232 25.3987C42.6135 25.1753 42.4133 24.9154 42.2304 24.7575C42.0494 24.6015 41.7856 24.5014 41.5449 24.4667C40.1951 24.2761 38.8415 24.1125 37.5053 23.943ZM52.0214 24.3166C50.637 24.28 49.2872 24.3069 47.9625 24.642C47.4195 24.7787 47.071 25.1368 47.0055 25.6952C46.9593 26.0822 46.9285 26.5 47.0248 26.8697C47.2828 27.8671 47.6082 28.8472 47.924 29.8292C47.9644 29.9563 48.0992 30.0737 48.2186 30.1488C49.3642 30.8766 50.637 30.8978 51.9232 30.7592C52.4219 30.7053 52.4161 30.6648 52.3429 30.1045C52.3217 29.9409 52.3275 29.7753 52.316 29.6097C52.2197 28.2965 52.1119 26.9833 52.0271 25.6702C51.9983 25.2312 52.0233 24.7883 52.0233 24.3185L52.0214 24.3166ZM53.606 30.0294C54.2183 29.3921 54.9077 27.2375 54.8152 26.3113C54.3223 26.3884 53.8313 26.4654 53.3134 26.5462C53.4116 27.7112 53.5059 28.851 53.6041 30.0275L53.606 30.0294ZM53.348 25.3351C53.839 25.2812 54.2992 25.2312 54.8711 25.1695C54.7478 24.9385 54.6978 24.6824 54.5726 24.6381C54.1914 24.5014 53.7793 24.4456 53.348 24.3512V25.3351Z" fill="black"/>
<path d="M52.6818 53.7474C52.3025 54.2287 51.9636 54.7062 51.5766 55.1395C48.9522 58.0777 45.7135 60.1341 42.1283 61.6957C41.6931 61.8863 41.3215 61.869 40.9076 61.6418C38.9532 60.5732 37.1567 59.2869 35.47 57.8351C32.7975 55.5342 30.1923 53.1505 27.2714 51.1557C25.2131 49.7482 23.1278 48.3792 21.0752 46.9639C20.1664 46.3362 19.3192 45.62 18.6433 44.7304C17.8886 43.7369 18.0368 42.905 19.1016 42.2504C19.9469 41.7305 20.8961 41.4802 21.8685 41.407C22.7966 41.3358 23.7343 41.3916 24.7336 41.3916C24.7336 40.8563 24.7606 40.348 24.7124 39.8455C24.7028 39.7376 24.4255 39.5952 24.258 39.5721C23.7439 39.5066 23.224 39.4642 22.7042 39.4604C21.1041 39.4469 19.5194 39.5567 17.9579 39.9552C15.4856 40.5887 14.001 42.2119 13.2 44.5686C12.8304 45.6546 12.6243 46.7675 12.5223 47.9016C12.4241 48.9876 12.0409 49.9503 11.4228 50.8457C11.0512 51.3848 10.7451 51.9702 10.4235 52.542C10.3465 52.6787 10.3272 52.8462 10.2887 52.9733C11.1244 52.7095 11.935 52.4149 12.7668 52.1993C14.0511 51.8681 15.3566 51.922 16.6563 52.1107C20.5476 52.6749 24.025 54.35 27.4524 56.1561C30.1134 57.5579 32.7686 58.9692 35.4238 60.3825C35.6664 60.5115 35.9052 60.6637 36.1131 60.8427C36.2094 60.9255 36.3076 61.1412 36.2653 61.2182C36.2017 61.3318 36.0034 61.4492 35.8782 61.4358C35.3179 61.3703 34.7461 61.3145 34.2069 61.1546C31.777 60.4384 29.4934 59.3543 27.2021 58.2934C25.1283 57.3326 23.0777 56.314 20.9866 55.3917C19.1228 54.5695 17.1723 53.9861 15.1525 53.6915C13.4696 53.447 11.9523 53.9842 10.5352 54.8487C8.12835 56.3179 6.34537 58.3858 4.88394 60.7599C4.65095 61.1373 4.43145 61.5205 4.19269 61.894C4.11182 62.0211 4.01555 62.1886 3.89425 62.2252C3.67089 62.2926 3.40325 62.3407 3.19145 62.2753C2.95462 62.2021 2.98157 61.9556 3.04126 61.7207C3.36282 60.4884 4.0117 59.4217 4.72412 58.3916C5.88711 56.7087 7.28692 55.2473 9.00059 54.0843C8.61935 52.9753 9.00637 51.9971 9.52817 51.0536C9.76115 50.6339 10.0038 50.2122 10.2964 49.8348C10.8953 49.0646 11.0358 48.1616 11.1379 47.2412C11.3362 45.4544 11.781 43.7446 12.6532 42.158C13.7199 40.2171 15.4278 39.1639 17.515 38.644C19.3481 38.1876 21.2081 38.0144 23.0931 38.1684C23.2548 38.1819 23.4204 38.1684 23.6573 38.1684C23.0315 37.4329 22.6175 36.603 21.6779 36.2121C20.2877 35.6345 19.3461 34.5312 18.6241 33.2469C17.6325 31.4889 17.0028 29.6154 17.1068 27.5725C17.1376 26.9564 17.3956 26.3556 17.5246 25.7414C17.5709 25.52 17.6132 25.26 17.542 25.0579C17.0337 23.6195 16.5427 22.1735 15.9554 20.7679C15.2853 19.1678 15.243 17.5755 15.8014 15.96C16.2577 14.6353 16.6986 13.2971 17.6171 12.1938C18.5875 11.0289 19.7505 10.224 21.3429 10.1971C21.4988 10.1952 21.701 10.0219 21.7992 9.8736C22.4539 8.87621 23.2414 8.0136 24.2234 7.32621C25.4942 6.43856 26.946 6.04577 28.4247 5.67993C29.84 5.33142 31.2494 4.93477 32.6338 4.48036C34.1338 3.98744 35.6183 3.44831 37.2068 3.32893C38.9821 3.19607 40.6476 3.56961 42.215 4.42645C43.2663 5.00216 44.3137 5.58173 45.5037 5.85707C46.7533 6.14589 47.9548 6.14589 49.1158 5.52396C49.4894 5.32372 49.9804 5.64527 49.9496 6.09005C49.9284 6.40776 49.809 6.72546 49.6973 7.03161C49.576 7.36086 49.4143 7.67279 49.2776 7.97509C49.9303 8.1426 50.5715 8.26776 51.1876 8.47186C53.1747 9.12459 54.2896 10.5571 54.7671 12.5481C54.8499 12.8908 54.9462 13.2316 55.0771 13.557C55.3409 14.2117 55.8357 14.5486 56.552 14.5352C56.6021 14.5352 56.6541 14.5352 56.7041 14.5352C57.4011 14.5352 57.5552 14.7778 57.1855 15.3766C56.5674 16.3759 55.6624 16.9401 54.486 17.0498C54.4128 17.0575 54.3377 17.0498 54.3281 17.0498C54.2954 17.6564 54.3127 18.234 54.2241 18.7962C54.1201 19.4528 53.7659 19.9977 53.2152 20.3905C53.065 20.4983 53.0245 20.5888 53.065 20.7929C53.2229 21.5824 53.3403 22.3795 53.4655 23.1401C54.226 23.3403 55.0213 23.5252 55.8011 23.762C56.2844 23.9084 56.6001 24.2838 56.6579 24.7806C56.7157 25.2716 56.5809 25.7299 56.1419 26.0495C56.0591 26.1092 56.0109 26.2459 55.9878 26.3556C55.7626 27.4936 55.5546 28.6354 55.0675 29.7021C54.794 30.3009 54.4128 30.8035 53.8698 31.1963C53.7447 31.2868 53.6965 31.564 53.7081 31.7489C53.8467 33.9824 53.4289 36.1274 52.7184 38.2281C52.0849 40.1035 51.1973 41.8557 50.2268 43.3498C50.9142 44.12 51.5727 44.8536 52.2274 45.593C53.038 46.5076 53.6638 47.5242 53.8429 48.7565C54.0162 49.9446 53.8563 51.1018 53.4193 52.2205C53.3962 52.2782 53.3846 52.3379 53.3808 52.3476C54.3608 52.8559 55.3505 53.3084 56.2805 53.8629C59.3786 55.7036 61.5467 58.38 63.062 61.611C63.3932 62.3176 63.6493 63.0589 63.94 63.7829C63.9631 63.8407 63.9805 63.9042 63.9882 63.9658C64.0498 64.453 63.8688 64.8227 63.5164 64.9382C63.1313 65.0653 62.8213 64.9209 62.5845 64.4279C62.0954 63.4036 61.6622 62.3523 61.1616 61.3337C59.3574 57.6715 56.4846 55.1953 52.678 53.7358L52.6818 53.7474ZM40.4377 50.1256C40.2645 50.1025 40.1143 50.089 39.966 50.0601C38.1638 49.7212 36.5233 48.9915 34.9925 47.9998C34.128 47.4395 33.2923 46.8407 32.6377 46.032C32.3007 45.6142 32.2526 45.2637 32.4528 45.077C32.6569 44.8864 32.9977 44.9692 33.4233 45.2445C34.463 45.9165 35.4816 46.6366 36.5733 47.2162C38.3525 48.1616 40.2336 48.8162 42.2977 48.7123C43.1373 48.6699 43.919 48.4369 44.6006 47.9363C45.7386 47.1045 46.6782 46.0724 47.5119 44.946C50.0112 41.5649 52.0772 37.9874 52.4469 33.6763C52.5027 33.0293 52.4546 32.3746 52.4546 31.7123C51.1029 31.9857 49.8109 31.8682 48.5767 31.4889C48.6075 32.0454 48.6768 32.5826 48.6595 33.1179C48.6325 34.0036 47.9163 34.897 47.0614 35.1319C46.037 35.413 45.1166 35.0299 44.2271 34.5928C44.1058 34.5331 43.9999 34.2077 44.0557 34.0825C44.1231 33.9343 44.3773 33.7783 44.5448 33.7841C44.9973 33.7976 45.4497 33.8765 45.8965 33.9612C46.9381 34.1596 47.562 33.4972 47.4368 32.6808C47.3483 32.0993 47.1673 31.5313 47.0152 30.9614C46.6185 29.4768 46.1987 28 45.8252 26.5116C45.6519 25.8203 45.6904 25.8107 44.9395 25.83C44.8625 25.8319 44.7874 25.828 44.7104 25.8358C44.0018 25.9089 43.8978 26.0399 43.7784 26.7407C43.5859 27.8748 43.2874 28.982 42.7907 30.0275C42.4056 30.8362 41.8029 31.3811 40.9364 31.6507C39.0033 32.2514 37.0566 32.3207 35.0946 31.8355C33.7256 31.4966 32.8899 30.634 32.5703 29.2515C32.3431 28.2695 32.2256 27.2799 32.2776 26.2767C32.293 25.984 32.2121 25.7587 31.956 25.6605C31.7346 25.5758 31.4766 25.5354 31.2398 25.5489C30.3425 25.6028 29.4452 25.6836 28.5499 25.7587C27.9722 25.8088 27.3946 25.8666 26.8035 25.9224C26.8439 26.2882 26.8901 26.6136 26.9113 26.941C26.9325 27.2702 26.9729 27.6091 26.9209 27.9287C26.8497 28.3716 26.7727 28.8376 26.5705 29.2284C26.2393 29.8677 25.55 29.8927 25.1168 29.3189C24.9454 29.0917 24.8299 28.8164 24.7144 28.5526C24.1194 27.1874 23.2664 26.0244 22.0322 25.1715C21.5161 24.8153 20.952 24.538 20.2973 24.667C19.3808 24.8461 18.8783 25.5026 18.549 26.3056C18.0696 27.4705 18.162 28.6681 18.4739 29.8484C18.9591 31.6834 19.7813 33.3393 21.3294 34.5158C22.2228 35.1955 23.2202 35.6826 24.4082 35.569C24.8453 35.5266 25.1418 35.7635 25.3267 36.214C26.2297 38.4148 26.3337 40.6831 25.9062 42.9975C25.629 44.4993 25.2362 45.9665 24.568 47.3991C29.6397 50.2584 33.7833 54.2884 38.1695 58.0046C38.9378 57.4096 39.2305 56.5932 39.2805 55.6767C39.3499 54.4097 39.4962 53.1582 39.8794 51.9432C40.0681 51.3463 40.2471 50.7475 40.4377 50.1294V50.1256ZM35.6587 14.8721C35.6414 14.8895 35.6241 14.9068 35.6048 14.9241C35.8571 15.1975 36.0977 15.4786 36.3615 15.7405C37.1028 16.4741 37.9847 16.9786 38.9609 17.3348C39.0745 17.3772 39.1573 17.5042 39.2555 17.5928C39.1535 17.6756 39.0591 17.8219 38.9513 17.8316C38.3274 17.8855 37.6901 17.9914 37.0759 17.924C35.5259 17.7546 34.1453 17.0922 32.8495 16.2546C32.2853 15.8907 31.7423 15.4921 31.1839 15.1051C31.336 16.1083 31.311 16.5685 31.0761 17.3252C30.5967 18.8655 29.528 19.9034 28.1898 20.714C28.0743 20.7833 27.9357 20.8546 27.8741 20.9624C27.2656 22.031 27.1173 23.2152 26.9864 24.4475C28.2649 24.2934 29.4934 24.1567 30.718 23.995C31.1782 23.9334 31.6846 23.9103 32.0774 23.7004C32.8302 23.298 33.6216 23.0592 34.4457 22.9514C36.7871 22.6433 39.1303 22.6818 41.4544 23.1074C42.4133 23.2845 43.376 23.5502 43.7765 24.5322C44.5236 24.5322 45.2264 24.538 45.9292 24.5264C46.037 24.5264 46.1853 24.4725 46.243 24.3936C46.5723 23.9372 47.0267 23.6542 47.5562 23.5541C48.4342 23.3885 49.3238 23.2595 50.2134 23.1748C50.8276 23.117 51.4514 23.1632 52.0618 23.1632C52.1581 22.4142 52.0387 22.1446 51.3917 21.9656C50.8507 21.8154 50.2788 21.7268 49.7166 21.7114C49.1389 21.6941 48.5575 21.7961 47.9779 21.852C47.7199 21.877 47.4041 21.9309 47.3097 21.6498C47.2385 21.4341 47.3059 21.1415 47.3925 20.9142C47.4599 20.739 47.6371 20.5927 47.7911 20.4656C48.3283 20.0228 48.9714 19.8033 49.6511 19.8244C50.3558 19.8456 51.0586 19.9881 51.746 20.0747C51.2916 18.4188 50.3 17.019 48.9464 15.8021C48.8906 15.9754 48.8598 16.0832 48.8193 16.1891C48.3707 17.3714 47.6159 18.261 46.3894 18.6846C45.8945 18.8559 45.6153 18.673 45.5422 18.1531C45.3978 17.1442 45.03 16.2277 44.2251 15.5807C43.8246 15.2591 43.3067 15.0781 42.8292 14.8625C42.7271 14.8163 42.5692 14.8952 42.4364 14.9164C42.471 15.0435 42.4941 15.1763 42.5461 15.2977C42.5846 15.3881 42.6597 15.4652 42.7214 15.5441C42.964 15.8522 43.2297 16.1468 43.4492 16.4703C43.6899 16.8265 43.5686 17.0826 43.1469 17.1384C42.8715 17.175 42.5904 17.1923 42.3151 17.1711C41.722 17.1249 41.1309 17.0652 40.5417 16.9844C39.2555 16.8053 38.0155 16.478 36.9064 15.7713C36.4771 15.496 36.0766 15.1744 35.6645 14.8721H35.6587ZM49.2968 44.7824C48.8443 45.3773 48.4265 45.9261 47.9856 46.5057C48.0299 46.5384 48.0876 46.5711 48.1319 46.6154C48.958 47.4472 49.2872 48.4292 49.0523 49.5922C48.8521 50.5838 48.2937 51.379 47.6544 52.1184C46.0563 53.9707 44.202 55.5554 42.3209 57.1073C41.4717 57.8082 40.6033 58.4859 39.6945 59.2138C40.2683 59.622 40.8074 60.0186 41.3658 60.3825C41.4679 60.448 41.6854 60.4307 41.801 60.3671C43.971 59.1637 46.1025 57.8987 48.0472 56.3448C49.4008 55.2627 50.6755 54.0978 51.5901 52.6056C52.6664 50.8495 52.9552 49.0377 51.696 47.2431C51.255 46.6154 50.6967 46.0686 50.1652 45.5083C49.9072 45.2368 49.5914 45.025 49.2988 44.7824H49.2968ZM37.5053 23.943C36.3538 24.0932 35.239 24.228 34.128 24.3859C33.7294 24.4436 33.4829 24.6901 33.4098 25.106C33.1556 26.5828 33.2865 28.0269 33.7775 29.4383C34.0221 30.1373 34.5092 30.5628 35.2332 30.7399C36.7851 31.1192 38.3428 31.1289 39.9025 30.842C40.6438 30.7053 41.2965 30.403 41.6623 29.6694C42.3343 28.3235 42.6886 26.9025 42.6232 25.3987C42.6135 25.1753 42.4133 24.9154 42.2304 24.7575C42.0494 24.6015 41.7856 24.5014 41.5449 24.4667C40.1951 24.2761 38.8415 24.1125 37.5053 23.943ZM52.0214 24.3166C50.637 24.28 49.2872 24.3069 47.9625 24.642C47.4195 24.7787 47.071 25.1368 47.0055 25.6952C46.9593 26.0822 46.9285 26.5 47.0248 26.8697C47.2828 27.8671 47.6082 28.8472 47.924 29.8292C47.9644 29.9563 48.0992 30.0737 48.2186 30.1488C49.3642 30.8766 50.637 30.8978 51.9232 30.7592C52.4219 30.7053 52.4161 30.6648 52.3429 30.1045C52.3217 29.9409 52.3275 29.7753 52.316 29.6097C52.2197 28.2965 52.1119 26.9833 52.0271 25.6702C51.9983 25.2312 52.0233 24.7883 52.0233 24.3185L52.0214 24.3166ZM53.606 30.0294C54.2183 29.3921 54.9077 27.2375 54.8152 26.3113C54.3223 26.3884 53.8313 26.4654 53.3134 26.5462C53.4116 27.7112 53.5059 28.851 53.6041 30.0275L53.606 30.0294ZM53.348 25.3351C53.839 25.2812 54.2992 25.2312 54.8711 25.1695C54.7478 24.9385 54.6978 24.6824 54.5726 24.6381C54.1914 24.5014 53.7793 24.4456 53.348 24.3512V25.3351Z" stroke="white" stroke-width="4.10975" mask="url(#path-3-outside-1_65_104)"/>
<path d="M20.3044 24.6992C20.9439 24.5732 21.4995 24.8425 22.0115 25.1973C23.2371 26.0456 24.0876 27.2033 24.6804 28.5635C24.7953 28.8259 24.9131 29.1055 25.0876 29.3369C25.3099 29.6313 25.6011 29.7768 25.8835 29.7617C26.1666 29.7465 26.4328 29.5702 26.6033 29.2412C26.8085 28.8443 26.8857 28.3723 26.9568 27.9307C27.0096 27.6038 26.969 27.2608 26.948 26.9346C26.9274 26.6172 26.8828 26.3008 26.8435 25.9512C27.4239 25.8963 27.9871 25.8381 28.5525 25.791H28.5535C29.4488 25.714 30.3454 25.6349 31.2419 25.5811C31.4735 25.5679 31.7265 25.6076 31.9431 25.6904C32.0615 25.7362 32.1379 25.811 32.1843 25.9072C32.2312 26.0048 32.2484 26.1277 32.241 26.2705C32.1888 27.2797 32.3071 28.2713 32.5349 29.2559C32.6959 29.9522 32.9867 30.5196 33.4118 30.9561C33.784 31.338 34.2573 31.6184 34.8327 31.7969L35.0857 31.8672C37.0563 32.356 39.0077 32.2843 40.947 31.6816C41.8237 31.4089 42.4347 30.8566 42.824 30.0391C43.3225 28.9898 43.6213 27.8793 43.8142 26.7432C43.8742 26.3907 43.9297 26.1951 44.0495 26.0752C44.1687 25.9561 44.3585 25.9049 44.7136 25.8682C44.787 25.8606 44.8593 25.8643 44.9402 25.8623C45.1285 25.8575 45.2648 25.8545 45.3669 25.8633C45.4689 25.872 45.5315 25.8924 45.5759 25.9287C45.6205 25.9652 45.6525 26.0225 45.6843 26.1182C45.7162 26.2142 45.7461 26.3425 45.7898 26.5166C46.1634 28.0052 46.5848 29.4852 46.9792 30.9668C47.132 31.539 47.312 32.1038 47.4001 32.6826C47.461 33.0798 47.3399 33.4363 47.0798 33.6699C46.8195 33.9036 46.4151 34.0184 45.9031 33.9209C45.4564 33.8362 45.0012 33.7567 44.5456 33.7432C44.452 33.74 44.3396 33.7814 44.2439 33.8398C44.1719 33.8839 44.1044 33.941 44.0593 34.002L44.0222 34.0635C44.0046 34.103 44.0014 34.1545 44.0056 34.2061C44.0099 34.2584 44.0217 34.3157 44.0398 34.3701C44.0579 34.4245 44.0821 34.4776 44.1101 34.5215C44.1376 34.5645 44.1715 34.6028 44.2107 34.6221C45.1001 35.0591 46.0321 35.4482 47.071 35.1631C47.941 34.924 48.6685 34.0173 48.696 33.1152C48.7129 32.5946 48.6478 32.0675 48.616 31.5342C49.8286 31.9008 51.0951 32.0137 52.4177 31.752C52.4197 32.4046 52.4643 33.0399 52.4099 33.6689C52.0411 37.9698 49.9801 41.5406 47.4822 44.9199C46.6499 46.0443 45.7109 47.0734 44.5788 47.9023C43.904 48.3961 43.1274 48.6298 42.2956 48.6719C40.2408 48.7753 38.3666 48.1234 36.5906 47.1797C35.5007 46.6011 34.4864 45.885 33.4431 45.21C33.2287 45.0713 33.0326 44.9789 32.862 44.9463C32.6904 44.9135 32.5405 44.9403 32.4275 45.0459C32.3163 45.1495 32.2765 45.2981 32.3074 45.4707C32.338 45.642 32.4386 45.8393 32.6091 46.0508C33.2657 46.8662 34.1074 47.4677 34.9724 48.0264C36.5062 49.02 38.1511 49.7518 39.9587 50.0918H39.9597C40.0946 50.1166 40.2349 50.1312 40.3904 50.1523C40.204 50.7573 40.0292 51.3433 39.8445 51.9277C39.46 53.1469 39.3133 54.4026 39.2439 55.6709C39.1947 56.5709 38.9095 57.3673 38.1697 57.9521C33.803 54.2507 29.6676 50.2353 24.614 47.3799C25.2735 45.9532 25.6645 44.4932 25.9421 43C26.3706 40.6802 26.2663 38.4048 25.3601 36.1963C25.266 35.9671 25.1423 35.7883 24.9831 35.6729C24.8234 35.5571 24.6312 35.5065 24.405 35.5283C23.2282 35.6407 22.2413 35.1595 21.3513 34.4824C19.8122 33.3146 18.9935 31.6654 18.5095 29.835C18.1986 28.6605 18.1076 27.4699 18.5827 26.3154C18.9098 25.5198 19.4071 24.8768 20.3044 24.6992ZM39.0066 36.2275C38.5116 36.1567 38.0102 36.137 37.5007 36.2529C36.8152 36.4091 36.3412 36.6066 36.0564 36.9121C35.7694 37.22 35.6807 37.6314 35.7478 38.1992C35.7771 38.451 35.843 38.7027 35.9285 38.9414C36.4346 40.3452 37.4324 41.3524 38.6179 42.1826C39.9957 43.1475 41.4841 43.8578 43.2136 43.8984L43.3054 43.9004L43.3005 43.8955C44.8373 43.9052 46.0064 43.2285 46.8816 41.9785C47.5451 41.0325 47.9355 39.9612 48.3318 38.8994C48.4508 38.577 48.574 38.3041 48.907 38.1338C48.9514 38.1113 48.994 38.0722 49.031 38.0264C49.0682 37.9803 49.1015 37.925 49.1286 37.8682C49.1558 37.8113 49.177 37.7513 49.1882 37.6953C49.1993 37.64 49.2014 37.5845 49.1872 37.5391C49.1554 37.4383 49.067 37.356 48.9695 37.2871C48.8714 37.2179 48.7549 37.1561 48.6609 37.1006C48.6081 37.0701 48.5424 37.0656 48.4812 37.0684C48.45 37.0697 48.4179 37.0737 48.3874 37.0771C48.3569 37.0806 48.328 37.0836 48.3005 37.0859C47.6537 37.1342 47.0132 37.2055 46.3689 37.2344C44.3679 37.3208 42.4321 36.8712 40.4792 36.5107C39.9936 36.4209 39.4997 36.2981 39.0066 36.2275ZM21.9372 27.0889C21.4849 26.6889 20.9604 26.4109 20.3103 26.6289C20.1133 26.6949 19.9662 26.7922 19.8786 26.9189C19.7905 27.0468 19.7659 27.201 19.8054 27.373C19.8491 27.5568 19.9441 27.6674 20.071 27.7256C20.1956 27.7827 20.3462 27.7871 20.4978 27.7705C20.8087 27.7354 21.0553 27.8443 21.2302 28.0781C21.4465 28.3671 21.6386 28.6776 21.8132 28.9961C21.8201 29.0088 21.8254 29.0282 21.8269 29.0537C21.8284 29.0789 21.8263 29.1076 21.821 29.1367C21.8156 29.1666 21.807 29.1953 21.7966 29.2197L21.7605 29.2783C21.3651 29.6878 21.2409 30.1858 21.237 30.7266L21.2556 31.0547C21.3317 31.8047 21.6408 32.4478 22.3015 32.915C22.4365 33.01 22.5793 33.0575 22.7185 33.0479C22.8582 33.0382 22.9901 32.9711 23.1033 32.8438C23.2126 32.72 23.2381 32.5978 23.2146 32.4746C23.1917 32.3553 23.123 32.2364 23.0515 32.1172C22.8153 31.7255 22.5971 31.3121 22.4577 30.8828C22.4334 30.8065 22.4461 30.6992 22.4841 30.5869C22.5218 30.4757 22.5827 30.3653 22.6462 30.2871C22.9913 29.862 23.1727 29.4186 23.0202 28.8604C22.8279 28.163 22.4743 27.5656 21.9372 27.0889Z" fill="white" stroke="black" stroke-width="0.0733884"/>
<path d="M42.6476 14.8999C42.7161 14.8834 42.7693 14.8788 42.8077 14.896H42.8087C43.2904 15.1135 43.8008 15.2914 44.1964 15.6089C44.9914 16.248 45.3565 17.1551 45.5001 18.1587C45.5383 18.4227 45.6295 18.6108 45.7833 18.7085C45.9376 18.8064 46.1436 18.8065 46.3956 18.7192C47.6344 18.2914 48.3962 17.3924 48.8478 16.2026C48.8841 16.1075 48.9124 16.0076 48.9571 15.8677C50.2725 17.0588 51.2346 18.4213 51.6886 20.0298C51.0242 19.9432 50.3359 19.8101 49.6466 19.7876C48.9598 19.7661 48.3077 19.9886 47.7618 20.437C47.6852 20.5002 47.6003 20.57 47.5265 20.646C47.4528 20.7219 47.388 20.8067 47.3526 20.9009C47.3087 21.0161 47.2694 21.149 47.2501 21.2808C47.2309 21.4123 47.2306 21.5463 47.2687 21.6616C47.2945 21.7385 47.3372 21.7938 47.3907 21.8325C47.4438 21.8709 47.5062 21.8912 47.5714 21.9009C47.6999 21.92 47.8499 21.8994 47.9757 21.8882C48.5589 21.832 49.1355 21.7322 49.7101 21.7476C50.1292 21.7591 50.5538 21.8124 50.9669 21.9009L51.3761 22.0005C51.6969 22.0902 51.8755 22.1992 51.9669 22.3687C52.0568 22.5354 52.0661 22.7695 52.0226 23.1255C51.4263 23.1239 50.8093 23.0813 50.2042 23.1382C49.3135 23.2211 48.4248 23.3523 47.5441 23.5181H47.5431C47.0046 23.62 46.5418 23.9078 46.2071 24.3716V24.3726C46.1841 24.4046 46.1396 24.434 46.0851 24.4556C46.0313 24.4768 45.9719 24.4888 45.923 24.4897C45.2279 24.5012 44.5328 24.4957 43.7941 24.4956C43.4319 23.6346 42.6425 23.3227 41.8146 23.1421L41.4552 23.0708C39.1291 22.6426 36.7796 22.606 34.4347 22.9146C33.6067 23.0229 32.8108 23.2629 32.0538 23.6675C31.8626 23.7696 31.6426 23.8273 31.4112 23.8667C31.1786 23.9063 30.9398 23.9273 30.7071 23.9585C29.4974 24.1183 28.2841 24.2529 27.0216 24.4048C27.1514 23.1888 27.304 22.0287 27.9005 20.981C27.9274 20.9339 27.9723 20.8928 28.0275 20.854C28.0828 20.8151 28.144 20.7812 28.2032 20.7456C29.5439 19.9323 30.6225 18.8882 31.1056 17.3364C31.2236 16.9562 31.289 16.6482 31.3058 16.3091C31.3216 15.9895 31.2919 15.6434 31.2247 15.1831C31.7583 15.5546 32.2816 15.9362 32.8233 16.2856C34.1215 17.1247 35.5085 17.7901 37.0665 17.9604C37.6872 18.0282 38.3288 17.9212 38.9483 17.8677C39.0163 17.8616 39.0762 17.8141 39.1261 17.7661C39.1517 17.7415 39.1771 17.7139 39.2013 17.689C39.2259 17.6636 39.2492 17.6399 39.2726 17.6206L39.3058 17.5942L39.2745 17.5659C39.2262 17.5223 39.1842 17.4717 39.1339 17.4204C39.0861 17.3717 39.0325 17.3244 38.9679 17.3003L38.6075 17.1597C37.8967 16.865 37.2425 16.4823 36.6642 15.9771L36.3819 15.7144C36.1271 15.4614 35.8942 15.1917 35.6495 14.9253C35.6522 14.9227 35.6547 14.92 35.6573 14.9175C36.0618 15.2121 36.4577 15.5308 36.881 15.8022C37.9942 16.5127 39.2417 16.8416 40.5304 17.021H40.5314C41.1212 17.1019 41.7132 17.1632 42.3067 17.2075C42.5852 17.2289 42.8712 17.2131 43.1466 17.1743L43.1456 17.1733C43.3618 17.1439 43.5136 17.0635 43.5743 16.9312C43.6198 16.8315 43.6098 16.7122 43.5499 16.5825L43.4737 16.4497C43.3634 16.2862 43.2419 16.1302 43.1173 15.9771L42.7442 15.521C42.6779 15.4386 42.6103 15.3678 42.5743 15.2837V15.2827C42.5495 15.2248 42.531 15.1637 42.5148 15.1001C42.5018 15.0492 42.4888 14.9956 42.4747 14.9429C42.4974 14.9379 42.5207 14.9344 42.5431 14.9282C42.579 14.9183 42.6139 14.908 42.6476 14.8999ZM37.5235 19.4585C36.5137 19.4767 35.6252 19.5839 34.8126 20.0327C34.2759 20.3292 33.8023 20.7248 33.6017 21.3286C33.5634 21.4446 33.5493 21.5914 33.5607 21.73C33.572 21.868 33.6097 22.0042 33.6817 22.0942C33.7152 22.136 33.7643 22.1611 33.8185 22.1772C33.8729 22.1935 33.9362 22.202 34.0011 22.2065C34.0659 22.2111 34.1352 22.2125 34.2013 22.2144C34.2678 22.2162 34.3316 22.2182 34.3888 22.2251C34.4468 22.2321 34.507 22.2107 34.5538 22.1938C36.6659 21.4803 38.8141 21.5109 40.9884 21.8569C41.1018 21.8753 41.2412 21.8626 41.3683 21.8257C41.4947 21.7889 41.6155 21.7268 41.6866 21.6431C41.7517 21.5668 41.7725 21.4385 41.7696 21.313C41.7674 21.2172 41.7506 21.1167 41.7247 21.0298L41.6964 20.9478L41.6066 20.772C41.3738 20.3861 40.9799 20.1646 40.5665 20.0054C39.5579 19.6182 38.5015 19.5009 37.5431 19.4565L37.5275 19.4556L37.5235 19.4585Z" fill="white" stroke="black" stroke-width="0.0733884"/>
<path d="M49.3019 44.833C49.5903 45.069 49.8907 45.2722 50.1369 45.5332C50.6696 46.093 51.2273 46.6389 51.6642 47.2637C52.2894 48.1546 52.5295 49.0485 52.4806 49.9365C52.4317 50.8253 52.0929 51.7113 51.5568 52.5859C50.6456 54.0726 49.3772 55.2351 48.0226 56.3164C46.0804 57.8683 43.9509 59.1337 41.7814 60.335C41.7288 60.3643 41.6507 60.3838 41.5734 60.3877C41.5148 60.3906 41.4609 60.3841 41.4201 60.3691L41.3839 60.3516C40.8389 59.9964 40.3149 59.6082 39.7531 59.2109C40.6475 58.4951 41.5046 57.8269 42.3419 57.1357C44.2231 55.582 46.0796 53.9973 47.6798 52.1426C48.3203 51.4018 48.8839 50.6005 49.0861 49.5996C49.3235 48.424 48.9902 47.4297 48.1564 46.5898L48.1554 46.5889C48.1311 46.5646 48.1032 46.5445 48.0773 46.5264C48.062 46.5157 48.0484 46.506 48.0353 46.4971C48.4607 45.938 48.8657 45.4066 49.3019 44.833Z" fill="white" stroke="black" stroke-width="0.0733884"/>
<path d="M54.782 26.3555C54.816 26.8143 54.6727 27.5565 54.4422 28.2695C54.324 28.6353 54.1833 28.9916 54.035 29.2959C53.9048 29.5628 53.7664 29.7854 53.6346 29.9414C53.5398 28.8063 53.4463 27.7024 53.3533 26.5791C53.8451 26.5023 54.3131 26.4288 54.782 26.3555Z" fill="white" stroke="black" stroke-width="0.0733884"/>
<path d="M53.3851 24.396C53.8031 24.4853 54.1928 24.5415 54.5599 24.6724C54.5812 24.6799 54.6033 24.6982 54.6253 24.729C54.6471 24.7596 54.6674 24.7999 54.6888 24.8481C54.7251 24.9303 54.7664 25.0354 54.8167 25.1382C54.2821 25.1956 53.8463 25.2428 53.3851 25.2935V24.396Z" fill="white" stroke="black" stroke-width="0.0733884"/>
<path d="M37.5148 36.3228C38.0123 36.2096 38.504 36.2291 38.9943 36.2993C39.4865 36.3698 39.9715 36.4904 40.4641 36.5815C42.4137 36.9411 44.3598 37.3949 46.3693 37.3062C46.6922 37.2917 47.0155 37.2662 47.3381 37.2388L48.3039 37.1577C48.3331 37.1557 48.3639 37.1522 48.3937 37.1489C48.4241 37.1456 48.454 37.1425 48.4826 37.1411C48.5409 37.1383 48.5886 37.1431 48.6223 37.1626C48.721 37.2193 48.8317 37.2783 48.926 37.3452C48.9973 37.3959 49.0547 37.4481 49.0891 37.5034L49.1154 37.5601C49.1242 37.5887 49.1243 37.6299 49.1144 37.6792C49.1046 37.728 49.0857 37.7822 49.0607 37.8345C49.0225 37.9143 48.9723 37.9857 48.9221 38.0308L48.8713 38.0669C48.5118 38.2509 48.3805 38.5504 48.2609 38.8726C47.866 39.938 47.4767 40.9982 46.8195 41.9351C45.9401 43.191 44.763 43.858 43.2111 43.8218L43.1437 43.8198C41.6767 43.7697 40.3844 43.2329 39.1779 42.4673L38.6584 42.1206C37.4795 41.297 36.4962 40.3007 35.9953 38.9146C35.9114 38.6818 35.847 38.4339 35.8185 38.189C35.7529 37.6336 35.842 37.2477 36.1086 36.9614C36.3774 36.6729 36.832 36.4784 37.5148 36.3228ZM37.801 37.2847C37.6377 37.2705 37.4959 37.3121 37.382 37.397C37.2968 37.4606 37.2283 37.5482 37.1779 37.6519L37.133 37.7603C37.0845 37.9068 37.0679 38.0543 37.0988 38.1909C37.13 38.3285 37.209 38.453 37.3488 38.5513C37.5977 38.7283 37.8492 38.9252 38.1252 39.0659L38.2453 39.1226C38.868 39.3963 39.5049 39.6494 40.1535 39.854C41.8626 40.3891 43.5858 40.9029 45.4201 40.8237C45.6256 40.8149 45.8051 40.7694 45.9533 40.6792C46.1019 40.5887 46.2173 40.4544 46.2961 40.272C46.539 39.7091 46.7454 39.1298 46.9855 38.5112L47.0051 38.4614H46.3312C46.0771 38.4595 45.818 38.4728 45.5656 38.4771C45.3115 38.4814 45.0607 38.4769 44.8166 38.437C43.0375 38.1482 41.2668 37.8068 39.4904 37.4985C38.931 37.4021 38.3659 37.3329 37.801 37.2847Z" fill="black" stroke="black" stroke-width="0.0733884"/>
<path d="M20.3337 26.6982C20.8702 26.5183 21.319 26.6921 21.7195 27.0029L21.8884 27.1436C22.414 27.6082 22.761 28.1949 22.9499 28.8799C23.0958 29.4074 22.9269 29.8269 22.5886 30.2412C22.5192 30.3258 22.455 30.4436 22.4148 30.5625C22.3749 30.6804 22.357 30.8066 22.3884 30.9053C22.5302 31.3421 22.7507 31.7607 22.988 32.1543C23.0609 32.2757 23.1223 32.3838 23.1423 32.4883C23.1615 32.5887 23.143 32.6879 23.0486 32.7949C22.9461 32.9111 22.8306 32.9684 22.7126 32.9766C22.5943 32.9847 22.4682 32.944 22.3445 32.8555V32.8545C21.6133 32.3373 21.3238 31.6014 21.3103 30.7266C21.3141 30.195 21.4341 29.7205 21.8142 29.3291C21.8542 29.2879 21.8812 29.2175 21.8933 29.1514C21.9052 29.086 21.9047 29.0115 21.8777 28.9609C21.7472 28.7202 21.6043 28.4846 21.449 28.2578L21.2898 28.0342L21.2136 27.9443C21.029 27.7514 20.7837 27.6642 20.49 27.6973C20.3441 27.7134 20.2091 27.708 20.1023 27.6592C19.998 27.6115 19.9158 27.5207 19.8767 27.3564C19.8403 27.2016 19.8633 27.0693 19.9382 26.9609C20.014 26.8515 20.1458 26.7612 20.3337 26.6982Z" fill="black" stroke="black" stroke-width="0.0733884"/>
<path d="M37.5533 19.5322C38.5046 19.577 39.5454 19.6953 40.5377 20.0762C41.0049 20.2562 41.4304 20.5095 41.6266 20.9785C41.665 21.0711 41.6912 21.198 41.694 21.3174C41.6968 21.4388 41.675 21.542 41.6285 21.5967C41.5707 21.6648 41.4662 21.7212 41.3463 21.7559C41.227 21.7904 41.0981 21.8025 40.9977 21.7871C38.8168 21.4401 36.6555 21.4081 34.5279 22.127C34.5031 22.1349 34.4806 22.1429 34.4576 22.1484C34.4346 22.154 34.4141 22.1564 34.3961 22.1543C34.3351 22.1474 34.2675 22.1453 34.2008 22.1436C34.1337 22.1418 34.0672 22.1402 34.0045 22.1357C33.9416 22.1312 33.8843 22.1234 33.8375 22.1094C33.8139 22.1023 33.7938 22.0939 33.777 22.084L33.7369 22.0508C33.6779 21.9761 33.6423 21.8568 33.6315 21.7256C33.6207 21.5953 33.6348 21.4588 33.6695 21.3535C33.8617 20.7751 34.3164 20.3913 34.8463 20.0986C35.647 19.6564 36.5276 19.5496 37.5387 19.5342L37.5533 19.5332V19.5322Z" fill="black" stroke="black" stroke-width="0.0733884"/>
<path d="M38.3882 25.4502C38.4814 25.4257 38.5936 25.4168 38.7036 25.457C38.8595 25.5142 38.9884 25.6549 39.0611 25.8701C39.3385 26.6987 39.21 27.5208 38.9566 28.335C38.917 28.4604 38.8477 28.5544 38.7554 28.6191C38.6626 28.6841 38.5446 28.7212 38.4077 28.7295H38.4068C38.328 28.7345 38.1459 28.7417 37.9732 28.6162C37.8723 28.542 37.8133 28.4511 37.7808 28.3857L37.7564 28.3311C37.7353 28.2361 37.6524 27.8542 37.6177 27.4004C37.5822 26.9369 37.5973 26.4051 37.773 26.0264H37.7739C37.8222 25.9215 37.9143 25.7256 38.105 25.5859L38.1929 25.5303C38.2226 25.5142 38.295 25.4748 38.3882 25.4502Z" fill="black" stroke="black" stroke-width="0.0733884"/>
<path d="M49.6835 25.8721C49.7681 25.8662 49.9509 25.8653 50.1191 25.9531C50.2217 26.007 50.305 26.088 50.373 26.2197C50.4948 26.4548 50.5451 26.8045 50.5058 27.1943C50.4666 27.5835 50.3387 28.0092 50.1084 28.3936C50.0712 28.4554 50.025 28.5277 49.9462 28.5811L49.8554 28.627C49.7149 28.6784 49.5331 28.6637 49.3525 28.6064C49.1727 28.5494 48.999 28.4517 48.8759 28.3438C48.6649 28.1581 48.5949 27.9334 48.6132 27.627C48.6315 27.3228 48.7375 26.9436 48.875 26.4492H48.8759L48.8828 26.4219C48.9112 26.3204 48.9629 26.1523 49.1464 26.0264C49.2795 25.9346 49.4571 25.8855 49.6826 25.8721H49.6835Z" fill="black" stroke="black" stroke-width="0.0733884"/>
<path d="M37.7946 37.3574C38.358 37.4074 38.9211 37.4752 39.4782 37.5713C41.2523 37.8792 43.0252 38.22 44.8044 38.5088C45.0549 38.5497 45.3106 38.5551 45.5661 38.5508C45.8231 38.5464 46.0778 38.5323 46.3317 38.5342H46.8981C46.6652 39.1345 46.4621 39.6949 46.2282 40.2432C46.1549 40.4127 46.0498 40.5344 45.9157 40.6162C45.7809 40.6983 45.6144 40.7415 45.4176 40.75C43.5977 40.8286 41.8857 40.3186 40.1754 39.7832C39.5303 39.5816 38.8962 39.3278 38.2751 39.0547C37.9617 38.916 37.6828 38.6943 37.3913 38.4902C37.2655 38.4008 37.1968 38.2924 37.1696 38.1738C37.149 38.0842 37.152 37.9871 37.1745 37.8857L37.2028 37.7832C37.25 37.6425 37.3263 37.5301 37.4254 37.4561C37.5242 37.3823 37.6481 37.3447 37.7946 37.3574Z" fill="white" stroke="black" stroke-width="0.0733884"/>
<path d="M58.797 3.3325C58.797 2.98747 58.8811 2.67294 59.0494 2.38892C59.2177 2.1049 59.4439 1.87874 59.7279 1.71043C60.0119 1.54212 60.3265 1.45797 60.6715 1.45797C60.9702 1.45797 61.2458 1.52214 61.4983 1.65047C61.7529 1.77881 61.9633 1.95448 62.1295 2.17749C62.2957 2.39839 62.3988 2.64875 62.4387 2.92856H61.675C61.633 2.71186 61.5162 2.53514 61.3247 2.39839C61.1333 2.25954 60.9155 2.19011 60.6715 2.19011C60.4611 2.19011 60.2697 2.24165 60.0971 2.34474C59.9246 2.44783 59.7868 2.58563 59.6837 2.75815C59.5807 2.93066 59.5291 3.12211 59.5291 3.3325C59.5291 3.54288 59.5807 3.73433 59.6837 3.90685C59.7868 4.07937 59.9246 4.21717 60.0971 4.32026C60.2697 4.42335 60.4611 4.47489 60.6715 4.47489C60.9155 4.47489 61.1217 4.40652 61.29 4.26976C61.4604 4.13091 61.5677 3.95314 61.6119 3.73644H62.3756C62.3356 4.01625 62.2378 4.26766 62.0821 4.49067C61.9264 4.71157 61.7266 4.88619 61.4825 5.01453C61.2406 5.14286 60.9702 5.20703 60.6715 5.20703C60.3265 5.20703 60.0119 5.12288 59.7279 4.95457C59.4439 4.78626 59.2177 4.5601 59.0494 4.27608C58.8811 3.99206 58.797 3.67753 58.797 3.3325ZM60.6399 6.665C60.1813 6.665 59.75 6.57874 59.3461 6.40622C58.9442 6.23371 58.5897 5.99492 58.2826 5.68986C57.9775 5.3827 57.7377 5.0282 57.5631 4.62637C57.3905 4.22453 57.3053 3.79324 57.3074 3.3325C57.3095 2.87176 57.3969 2.44047 57.5694 2.03863C57.744 1.6368 57.9838 1.28335 58.2889 0.978291C58.5939 0.671128 58.9474 0.431289 59.3492 0.258774C59.7511 0.0862579 60.1813 0 60.6399 0C61.1007 0 61.532 0.0862579 61.9338 0.258774C62.3377 0.431289 62.6912 0.671128 62.9941 0.978291C63.2992 1.28335 63.538 1.6368 63.7105 2.03863C63.883 2.44047 63.9703 2.87176 63.9724 3.3325C63.9745 3.79324 63.8893 4.22453 63.7168 4.62637C63.5443 5.0282 63.3055 5.3827 63.0005 5.68986C62.6954 5.99492 62.3409 6.23371 61.937 6.40622C61.533 6.57874 61.1007 6.665 60.6399 6.665ZM60.6399 5.93286C60.9997 5.93286 61.3374 5.86554 61.6529 5.73089C61.9685 5.59624 62.2452 5.41005 62.4829 5.17232C62.7206 4.93458 62.9068 4.65898 63.0415 4.3455C63.1761 4.02993 63.2424 3.69331 63.2403 3.33566C63.2382 2.9759 63.1698 2.63823 63.0352 2.32265C62.9005 2.00707 62.7143 1.73042 62.4766 1.49268C62.2389 1.25495 61.9633 1.06876 61.6498 0.93411C61.3363 0.799463 60.9997 0.73214 60.6399 0.73214C60.2823 0.73214 59.9467 0.799463 59.6332 0.93411C59.3198 1.06876 59.0442 1.256 58.8064 1.49584C58.5687 1.73357 58.3815 2.01023 58.2447 2.32581C58.1101 2.63928 58.0417 2.9759 58.0396 3.33566C58.0375 3.69121 58.1037 4.02677 58.2384 4.34235C58.373 4.65582 58.5592 4.93143 58.797 5.16916C59.0368 5.4069 59.3135 5.59414 59.6269 5.73089C59.9425 5.86554 60.2802 5.93286 60.6399 5.93286Z" fill="white"/>
</svg>
