<svg width="67" height="68" viewBox="0 0 67 68" fill="none" xmlns="http://www.w3.org/2000/svg">
<rect x="34.9973" y="25.5484" width="5.79768" height="3.88958" fill="white"/>
<rect x="48.2806" y="25.6218" width="3.22909" height="3.96297" fill="white"/>
<mask id="path-3-outside-1_18_308" maskUnits="userSpaceOnUse" x="6.10352e-05" y="0.311596" width="67" height="67" fill="black">
<rect fill="white" x="6.10352e-05" y="0.311596" width="67" height="67"/>
<path d="M52.6818 53.7562C52.3025 54.2376 51.9636 54.7151 51.5766 55.1483C48.9522 58.0866 45.7135 60.143 42.1283 61.7046C41.6931 61.8952 41.3215 61.8779 40.9076 61.6507C38.9532 60.582 37.1567 59.2958 35.47 57.844C32.7975 55.5431 30.1923 53.1593 27.2714 51.1645C25.2131 49.757 23.1278 48.388 21.0752 46.9728C20.1664 46.3451 19.3192 45.6288 18.6433 44.7393C17.8886 43.7457 18.0368 42.9139 19.1016 42.2592C19.9469 41.7394 20.8961 41.4891 21.8685 41.4159C22.7966 41.3446 23.7343 41.4005 24.7336 41.4005C24.7336 40.8652 24.7606 40.3569 24.7124 39.8543C24.7028 39.7465 24.4255 39.604 24.258 39.5809C23.7439 39.5154 23.224 39.4731 22.7042 39.4692C21.1041 39.4558 19.5194 39.5655 17.9579 39.9641C15.4856 40.5976 14.001 42.2207 13.2 44.5775C12.8304 45.6635 12.6243 46.7764 12.5223 47.9105C12.4241 48.9965 12.0409 49.9592 11.4228 50.8545C11.0512 51.3937 10.7451 51.979 10.4235 52.5509C10.3465 52.6876 10.3272 52.8551 10.2887 52.9822C11.1244 52.7184 11.935 52.4238 12.7668 52.2082C14.0511 51.877 15.3566 51.9309 16.6563 52.1196C20.5476 52.6837 24.025 54.3589 27.4524 56.165C30.1134 57.5667 32.7686 58.9781 35.4238 60.3914C35.6664 60.5204 35.9052 60.6725 36.1131 60.8516C36.2094 60.9344 36.3076 61.15 36.2653 61.2271C36.2017 61.3407 36.0034 61.4581 35.8782 61.4446C35.3179 61.3792 34.7461 61.3233 34.2069 61.1635C31.777 60.4472 29.4934 59.3632 27.2021 58.3023C25.1283 57.3415 23.0777 56.3229 20.9866 55.4006C19.1228 54.5784 17.1723 53.995 15.1525 53.7004C13.4696 53.4559 11.9523 53.9931 10.5352 54.8576C8.12835 56.3267 6.34537 58.3947 4.88394 60.7688C4.65095 61.1462 4.43145 61.5293 4.19269 61.9029C4.11182 62.03 4.01555 62.1975 3.89425 62.2341C3.67089 62.3015 3.40325 62.3496 3.19145 62.2841C2.95462 62.211 2.98157 61.9645 3.04126 61.7296C3.36282 60.4973 4.0117 59.4306 4.72412 58.4005C5.88711 56.7176 7.28692 55.2562 9.00059 54.0932C8.61935 52.9841 9.00637 52.006 9.52817 51.0625C9.76115 50.6427 10.0038 50.2211 10.2964 49.8437C10.8953 49.0735 11.0358 48.1704 11.1379 47.2501C11.3362 45.4632 11.781 43.7534 12.6532 42.1668C13.7199 40.226 15.4278 39.1727 17.515 38.6528C19.3481 38.1965 21.2081 38.0232 23.0931 38.1772C23.2548 38.1907 23.4204 38.1772 23.6573 38.1772C23.0315 37.4417 22.6175 36.6118 21.6779 36.221C20.2877 35.6433 19.3461 34.54 18.6241 33.2557C17.6325 31.4978 17.0028 29.6243 17.1068 27.5814C17.1376 26.9652 17.3956 26.3645 17.5246 25.7503C17.5709 25.5288 17.6132 25.2689 17.542 25.0667C17.0337 23.6284 16.5427 22.1824 15.9554 20.7768C15.2853 19.1767 15.243 17.5843 15.8014 15.9689C16.2577 14.6442 16.6986 13.3059 17.6171 12.2027C18.5875 11.0377 19.7505 10.2329 21.3429 10.2059C21.4988 10.204 21.701 10.0307 21.7992 9.88246C22.4539 8.88507 23.2414 8.02246 24.2234 7.33507C25.4942 6.44742 26.946 6.05463 28.4247 5.68879C29.84 5.34028 31.2494 4.94363 32.6338 4.48922C34.1338 3.9963 35.6183 3.45717 37.2068 3.33779C38.9821 3.20493 40.6476 3.57847 42.215 4.43531C43.2663 5.01102 44.3137 5.59059 45.5037 5.86593C46.7533 6.15475 47.9548 6.15475 49.1158 5.53283C49.4894 5.33258 49.9804 5.65413 49.9496 6.09891C49.9284 6.41662 49.809 6.73432 49.6973 7.04047C49.576 7.36972 49.4143 7.68165 49.2776 7.98395C49.9303 8.15147 50.5715 8.27662 51.1876 8.48072C53.1747 9.13346 54.2896 10.566 54.7671 12.5569C54.8499 12.8997 54.9462 13.2405 55.0771 13.5659C55.3409 14.2205 55.8357 14.5575 56.552 14.544C56.6021 14.544 56.6541 14.544 56.7041 14.544C57.4011 14.544 57.5552 14.7866 57.1855 15.3855C56.5674 16.3848 55.6624 16.9489 54.486 17.0587C54.4128 17.0664 54.3377 17.0587 54.3281 17.0587C54.2954 17.6652 54.3127 18.2429 54.2241 18.8051C54.1201 19.4617 53.7659 20.0066 53.2152 20.3994C53.065 20.5072 53.0245 20.5977 53.065 20.8018C53.2229 21.5912 53.3403 22.3884 53.4655 23.149C54.226 23.3492 55.0213 23.534 55.8011 23.7709C56.2844 23.9172 56.6001 24.2927 56.6579 24.7895C56.7157 25.2804 56.5809 25.7387 56.1419 26.0583C56.0591 26.118 56.0109 26.2547 55.9878 26.3645C55.7626 27.5024 55.5546 28.6442 55.0675 29.711C54.794 30.3098 54.4128 30.8123 53.8698 31.2051C53.7447 31.2956 53.6965 31.5729 53.7081 31.7577C53.8467 33.9913 53.4289 36.1362 52.7184 38.2369C52.0849 40.1123 51.1973 41.8645 50.2268 43.3587C50.9142 44.1289 51.5727 44.8625 52.2274 45.6019C53.038 46.5165 53.6638 47.5331 53.8429 48.7654C54.0162 49.9534 53.8563 51.1106 53.4193 52.2293C53.3962 52.2871 53.3846 52.3468 53.3808 52.3564C54.3608 52.8647 55.3505 53.3172 56.2805 53.8718C59.3786 55.7125 61.5467 58.3889 63.062 61.6198C63.3932 62.3265 63.6493 63.0678 63.94 63.7918C63.9631 63.8495 63.9805 63.9131 63.9882 63.9747C64.0498 64.4618 63.8688 64.8315 63.5164 64.9471C63.1313 65.0741 62.8213 64.9297 62.5845 64.4368C62.0954 63.4125 61.6622 62.3611 61.1616 61.3426C59.3574 57.6803 56.4846 55.2042 52.678 53.7447L52.6818 53.7562ZM40.4377 50.1344C40.2645 50.1113 40.1143 50.0978 39.966 50.069C38.1638 49.7301 36.5233 49.0003 34.9925 48.0087C34.128 47.4484 33.2923 46.8496 32.6377 46.0409C32.3007 45.623 32.2526 45.2726 32.4528 45.0858C32.6569 44.8952 32.9977 44.978 33.4233 45.2534C34.463 45.9253 35.4816 46.6455 36.5733 47.225C38.3525 48.1704 40.2336 48.8251 42.2977 48.7211C43.1373 48.6788 43.919 48.4458 44.6006 47.9452C45.7386 47.1134 46.6782 46.0813 47.5119 44.9549C50.0112 41.5738 52.0772 37.9963 52.4469 33.6851C52.5027 33.0382 52.4546 32.3835 52.4546 31.7211C51.1029 31.9946 49.8109 31.8771 48.5767 31.4978C48.6075 32.0543 48.6768 32.5915 48.6595 33.1267C48.6325 34.0125 47.9163 34.9059 47.0614 35.1408C46.037 35.4219 45.1166 35.0387 44.2271 34.6017C44.1058 34.542 43.9999 34.2166 44.0557 34.0914C44.1231 33.9431 44.3773 33.7872 44.5448 33.793C44.9973 33.8064 45.4497 33.8854 45.8965 33.9701C46.9381 34.1684 47.562 33.5061 47.4368 32.6897C47.3483 32.1082 47.1673 31.5402 47.0152 30.9702C46.6185 29.4857 46.1987 28.0088 45.8252 26.5205C45.6519 25.8292 45.6904 25.8196 44.9395 25.8388C44.8625 25.8408 44.7874 25.8369 44.7104 25.8446C44.0018 25.9178 43.8978 26.0487 43.7784 26.7496C43.5859 27.8837 43.2874 28.9908 42.7907 30.0364C42.4056 30.8451 41.8029 31.39 40.9364 31.6595C39.0033 32.2603 37.0566 32.3296 35.0946 31.8444C33.7256 31.5055 32.8899 30.6429 32.5703 29.2604C32.3431 28.2784 32.2256 27.2887 32.2776 26.2855C32.293 25.9929 32.2121 25.7676 31.956 25.6694C31.7346 25.5847 31.4766 25.5442 31.2398 25.5577C30.3425 25.6116 29.4452 25.6925 28.5499 25.7676C27.9722 25.8177 27.3946 25.8754 26.8035 25.9313C26.8439 26.2971 26.8901 26.6225 26.9113 26.9498C26.9325 27.2791 26.9729 27.618 26.9209 27.9376C26.8497 28.3805 26.7727 28.8464 26.5705 29.2373C26.2393 29.8765 25.55 29.9016 25.1168 29.3278C24.9454 29.1006 24.8299 28.8252 24.7144 28.5615C24.1194 27.1963 23.2664 26.0333 22.0322 25.1803C21.5161 24.8241 20.952 24.5468 20.2973 24.6759C19.3808 24.8549 18.8783 25.5115 18.549 26.3144C18.0696 27.4793 18.162 28.677 18.4739 29.8573C18.9591 31.6923 19.7813 33.3482 21.3294 34.5246C22.2228 35.2043 23.2202 35.6915 24.4082 35.5779C24.8453 35.5355 25.1418 35.7723 25.3267 36.2229C26.2297 38.4237 26.3337 40.6919 25.9062 43.0063C25.629 44.5082 25.2362 45.9754 24.568 47.408C29.6397 50.2673 33.7833 54.2973 38.1695 58.0134C38.9378 57.4185 39.2305 56.6021 39.2805 55.6856C39.3499 54.4186 39.4962 53.167 39.8794 51.9521C40.0681 51.3552 40.2471 50.7563 40.4377 50.1383V50.1344ZM35.6587 14.881C35.6414 14.8983 35.6241 14.9156 35.6048 14.933C35.8571 15.2064 36.0977 15.4875 36.3615 15.7494C37.1028 16.483 37.9847 16.9874 38.9609 17.3437C39.0745 17.386 39.1573 17.5131 39.2555 17.6017C39.1535 17.6845 39.0591 17.8308 38.9513 17.8404C38.3274 17.8943 37.6901 18.0002 37.0759 17.9329C35.5259 17.7634 34.1453 17.1011 32.8495 16.2635C32.2853 15.8996 31.7423 15.501 31.1839 15.114C31.336 16.1171 31.311 16.5773 31.0761 17.334C30.5967 18.8744 29.528 19.9122 28.1898 20.7229C28.0743 20.7922 27.9357 20.8634 27.8741 20.9712C27.2656 22.0399 27.1173 23.224 26.9864 24.4563C28.2649 24.3023 29.4934 24.1656 30.718 24.0039C31.1782 23.9422 31.6846 23.9191 32.0774 23.7093C32.8302 23.3068 33.6216 23.0681 34.4457 22.9603C36.7871 22.6522 39.1303 22.6907 41.4544 23.1162C42.4133 23.2934 43.376 23.5591 43.7765 24.5411C44.5236 24.5411 45.2264 24.5468 45.9292 24.5353C46.037 24.5353 46.1853 24.4814 46.243 24.4024C46.5723 23.9461 47.0267 23.6631 47.5562 23.5629C48.4342 23.3973 49.3238 23.2683 50.2134 23.1836C50.8276 23.1258 51.4514 23.1721 52.0618 23.1721C52.1581 22.4231 52.0387 22.1535 51.3917 21.9744C50.8507 21.8242 50.2788 21.7357 49.7166 21.7203C49.1389 21.7029 48.5575 21.805 47.9779 21.8608C47.7199 21.8858 47.4041 21.9398 47.3097 21.6586C47.2385 21.443 47.3059 21.1503 47.3925 20.9231C47.4599 20.7479 47.6371 20.6016 47.7911 20.4745C48.3283 20.0316 48.9714 19.8121 49.6511 19.8333C50.3558 19.8545 51.0586 19.997 51.746 20.0836C51.2916 18.4277 50.3 17.0279 48.9464 15.811C48.8906 15.9843 48.8598 16.0921 48.8193 16.198C48.3707 17.3802 47.6159 18.2698 46.3894 18.6934C45.8945 18.8648 45.6153 18.6819 45.5422 18.162C45.3978 17.153 45.03 16.2365 44.2251 15.5896C43.8246 15.268 43.3067 15.087 42.8292 14.8714C42.7271 14.8251 42.5692 14.9041 42.4364 14.9253C42.471 15.0524 42.4941 15.1852 42.5461 15.3065C42.5846 15.397 42.6597 15.474 42.7214 15.553C42.964 15.861 43.2297 16.1556 43.4492 16.4791C43.6899 16.8353 43.5686 17.0914 43.1469 17.1473C42.8715 17.1838 42.5904 17.2012 42.3151 17.18C41.722 17.1338 41.1309 17.0741 40.5417 16.9932C39.2555 16.8142 38.0155 16.4868 36.9064 15.7802C36.4771 15.5048 36.0766 15.1833 35.6645 14.881H35.6587ZM49.2968 44.7912C48.8443 45.3862 48.4265 45.935 47.9856 46.5145C48.0299 46.5473 48.0876 46.58 48.1319 46.6243C48.958 47.4561 49.2872 48.4381 49.0523 49.6011C48.8521 50.5927 48.2937 51.3879 47.6544 52.1273C46.0563 53.9796 44.202 55.5642 42.3209 57.1162C41.4717 57.817 40.6033 58.4948 39.6945 59.2226C40.2683 59.6308 40.8074 60.0275 41.3658 60.3914C41.4679 60.4569 41.6854 60.4395 41.801 60.376C43.971 59.1726 46.1025 57.9075 48.0472 56.3537C49.4008 55.2716 50.6755 54.1067 51.5901 52.6144C52.6664 50.8584 52.9552 49.0465 51.696 47.252C51.255 46.6243 50.6967 46.0775 50.1652 45.5171C49.9072 45.2457 49.5914 45.0338 49.2988 44.7912H49.2968ZM37.5053 23.9519C36.3538 24.1021 35.239 24.2368 34.128 24.3947C33.7294 24.4525 33.4829 24.699 33.4098 25.1149C33.1556 26.5917 33.2865 28.0358 33.7775 29.4472C34.0221 30.1461 34.5092 30.5716 35.2332 30.7488C36.7851 31.1281 38.3428 31.1377 39.9025 30.8508C40.6438 30.7141 41.2965 30.4118 41.6623 29.6782C42.3343 28.3323 42.6886 26.9113 42.6232 25.4075C42.6135 25.1842 42.4133 24.9242 42.2304 24.7663C42.0494 24.6104 41.7856 24.5103 41.5449 24.4756C40.1951 24.285 38.8415 24.1213 37.5053 23.9519ZM52.0214 24.3254C50.637 24.2888 49.2872 24.3158 47.9625 24.6508C47.4195 24.7875 47.071 25.1457 47.0055 25.7041C46.9593 26.0911 46.9285 26.5089 47.0248 26.8786C47.2828 27.876 47.6082 28.856 47.924 29.838C47.9644 29.9651 48.0992 30.0826 48.2186 30.1577C49.3642 30.8855 50.637 30.9067 51.9232 30.768C52.4219 30.7141 52.4161 30.6737 52.3429 30.1134C52.3217 29.9497 52.3275 29.7841 52.316 29.6185C52.2197 28.3054 52.1119 26.9922 52.0271 25.679C51.9983 25.24 52.0233 24.7972 52.0233 24.3273L52.0214 24.3254ZM53.606 30.0383C54.2183 29.401 54.9077 27.2464 54.8152 26.3202C54.3223 26.3972 53.8313 26.4742 53.3134 26.5551C53.4116 27.72 53.5059 28.8599 53.6041 30.0364L53.606 30.0383ZM53.348 25.344C53.839 25.2901 54.2992 25.24 54.8711 25.1784C54.7478 24.9473 54.6978 24.6913 54.5726 24.647C54.1914 24.5103 53.7793 24.4544 53.348 24.3601V25.344Z"/>
</mask>
<path d="M52.6818 53.7562C52.3025 54.2376 51.9636 54.7151 51.5766 55.1483C48.9522 58.0866 45.7135 60.143 42.1283 61.7046C41.6931 61.8952 41.3215 61.8779 40.9076 61.6507C38.9532 60.582 37.1567 59.2958 35.47 57.844C32.7975 55.5431 30.1923 53.1593 27.2714 51.1645C25.2131 49.757 23.1278 48.388 21.0752 46.9728C20.1664 46.3451 19.3192 45.6288 18.6433 44.7393C17.8886 43.7457 18.0368 42.9139 19.1016 42.2592C19.9469 41.7394 20.8961 41.4891 21.8685 41.4159C22.7966 41.3446 23.7343 41.4005 24.7336 41.4005C24.7336 40.8652 24.7606 40.3569 24.7124 39.8543C24.7028 39.7465 24.4255 39.604 24.258 39.5809C23.7439 39.5154 23.224 39.4731 22.7042 39.4692C21.1041 39.4558 19.5194 39.5655 17.9579 39.9641C15.4856 40.5976 14.001 42.2207 13.2 44.5775C12.8304 45.6635 12.6243 46.7764 12.5223 47.9105C12.4241 48.9965 12.0409 49.9592 11.4228 50.8545C11.0512 51.3937 10.7451 51.979 10.4235 52.5509C10.3465 52.6876 10.3272 52.8551 10.2887 52.9822C11.1244 52.7184 11.935 52.4238 12.7668 52.2082C14.0511 51.877 15.3566 51.9309 16.6563 52.1196C20.5476 52.6837 24.025 54.3589 27.4524 56.165C30.1134 57.5667 32.7686 58.9781 35.4238 60.3914C35.6664 60.5204 35.9052 60.6725 36.1131 60.8516C36.2094 60.9344 36.3076 61.15 36.2653 61.2271C36.2017 61.3407 36.0034 61.4581 35.8782 61.4446C35.3179 61.3792 34.7461 61.3233 34.2069 61.1635C31.777 60.4472 29.4934 59.3632 27.2021 58.3023C25.1283 57.3415 23.0777 56.3229 20.9866 55.4006C19.1228 54.5784 17.1723 53.995 15.1525 53.7004C13.4696 53.4559 11.9523 53.9931 10.5352 54.8576C8.12835 56.3267 6.34537 58.3947 4.88394 60.7688C4.65095 61.1462 4.43145 61.5293 4.19269 61.9029C4.11182 62.03 4.01555 62.1975 3.89425 62.2341C3.67089 62.3015 3.40325 62.3496 3.19145 62.2841C2.95462 62.211 2.98157 61.9645 3.04126 61.7296C3.36282 60.4973 4.0117 59.4306 4.72412 58.4005C5.88711 56.7176 7.28692 55.2562 9.00059 54.0932C8.61935 52.9841 9.00637 52.006 9.52817 51.0625C9.76115 50.6427 10.0038 50.2211 10.2964 49.8437C10.8953 49.0735 11.0358 48.1704 11.1379 47.2501C11.3362 45.4632 11.781 43.7534 12.6532 42.1668C13.7199 40.226 15.4278 39.1727 17.515 38.6528C19.3481 38.1965 21.2081 38.0232 23.0931 38.1772C23.2548 38.1907 23.4204 38.1772 23.6573 38.1772C23.0315 37.4417 22.6175 36.6118 21.6779 36.221C20.2877 35.6433 19.3461 34.54 18.6241 33.2557C17.6325 31.4978 17.0028 29.6243 17.1068 27.5814C17.1376 26.9652 17.3956 26.3645 17.5246 25.7503C17.5709 25.5288 17.6132 25.2689 17.542 25.0667C17.0337 23.6284 16.5427 22.1824 15.9554 20.7768C15.2853 19.1767 15.243 17.5843 15.8014 15.9689C16.2577 14.6442 16.6986 13.3059 17.6171 12.2027C18.5875 11.0377 19.7505 10.2329 21.3429 10.2059C21.4988 10.204 21.701 10.0307 21.7992 9.88246C22.4539 8.88507 23.2414 8.02246 24.2234 7.33507C25.4942 6.44742 26.946 6.05463 28.4247 5.68879C29.84 5.34028 31.2494 4.94363 32.6338 4.48922C34.1338 3.9963 35.6183 3.45717 37.2068 3.33779C38.9821 3.20493 40.6476 3.57847 42.215 4.43531C43.2663 5.01102 44.3137 5.59059 45.5037 5.86593C46.7533 6.15475 47.9548 6.15475 49.1158 5.53283C49.4894 5.33258 49.9804 5.65413 49.9496 6.09891C49.9284 6.41662 49.809 6.73432 49.6973 7.04047C49.576 7.36972 49.4143 7.68165 49.2776 7.98395C49.9303 8.15147 50.5715 8.27662 51.1876 8.48072C53.1747 9.13346 54.2896 10.566 54.7671 12.5569C54.8499 12.8997 54.9462 13.2405 55.0771 13.5659C55.3409 14.2205 55.8357 14.5575 56.552 14.544C56.6021 14.544 56.6541 14.544 56.7041 14.544C57.4011 14.544 57.5552 14.7866 57.1855 15.3855C56.5674 16.3848 55.6624 16.9489 54.486 17.0587C54.4128 17.0664 54.3377 17.0587 54.3281 17.0587C54.2954 17.6652 54.3127 18.2429 54.2241 18.8051C54.1201 19.4617 53.7659 20.0066 53.2152 20.3994C53.065 20.5072 53.0245 20.5977 53.065 20.8018C53.2229 21.5912 53.3403 22.3884 53.4655 23.149C54.226 23.3492 55.0213 23.534 55.8011 23.7709C56.2844 23.9172 56.6001 24.2927 56.6579 24.7895C56.7157 25.2804 56.5809 25.7387 56.1419 26.0583C56.0591 26.118 56.0109 26.2547 55.9878 26.3645C55.7626 27.5024 55.5546 28.6442 55.0675 29.711C54.794 30.3098 54.4128 30.8123 53.8698 31.2051C53.7447 31.2956 53.6965 31.5729 53.7081 31.7577C53.8467 33.9913 53.4289 36.1362 52.7184 38.2369C52.0849 40.1123 51.1973 41.8645 50.2268 43.3587C50.9142 44.1289 51.5727 44.8625 52.2274 45.6019C53.038 46.5165 53.6638 47.5331 53.8429 48.7654C54.0162 49.9534 53.8563 51.1106 53.4193 52.2293C53.3962 52.2871 53.3846 52.3468 53.3808 52.3564C54.3608 52.8647 55.3505 53.3172 56.2805 53.8718C59.3786 55.7125 61.5467 58.3889 63.062 61.6198C63.3932 62.3265 63.6493 63.0678 63.94 63.7918C63.9631 63.8495 63.9805 63.9131 63.9882 63.9747C64.0498 64.4618 63.8688 64.8315 63.5164 64.9471C63.1313 65.0741 62.8213 64.9297 62.5845 64.4368C62.0954 63.4125 61.6622 62.3611 61.1616 61.3426C59.3574 57.6803 56.4846 55.2042 52.678 53.7447L52.6818 53.7562ZM40.4377 50.1344C40.2645 50.1113 40.1143 50.0978 39.966 50.069C38.1638 49.7301 36.5233 49.0003 34.9925 48.0087C34.128 47.4484 33.2923 46.8496 32.6377 46.0409C32.3007 45.623 32.2526 45.2726 32.4528 45.0858C32.6569 44.8952 32.9977 44.978 33.4233 45.2534C34.463 45.9253 35.4816 46.6455 36.5733 47.225C38.3525 48.1704 40.2336 48.8251 42.2977 48.7211C43.1373 48.6788 43.919 48.4458 44.6006 47.9452C45.7386 47.1134 46.6782 46.0813 47.5119 44.9549C50.0112 41.5738 52.0772 37.9963 52.4469 33.6851C52.5027 33.0382 52.4546 32.3835 52.4546 31.7211C51.1029 31.9946 49.8109 31.8771 48.5767 31.4978C48.6075 32.0543 48.6768 32.5915 48.6595 33.1267C48.6325 34.0125 47.9163 34.9059 47.0614 35.1408C46.037 35.4219 45.1166 35.0387 44.2271 34.6017C44.1058 34.542 43.9999 34.2166 44.0557 34.0914C44.1231 33.9431 44.3773 33.7872 44.5448 33.793C44.9973 33.8064 45.4497 33.8854 45.8965 33.9701C46.9381 34.1684 47.562 33.5061 47.4368 32.6897C47.3483 32.1082 47.1673 31.5402 47.0152 30.9702C46.6185 29.4857 46.1987 28.0088 45.8252 26.5205C45.6519 25.8292 45.6904 25.8196 44.9395 25.8388C44.8625 25.8408 44.7874 25.8369 44.7104 25.8446C44.0018 25.9178 43.8978 26.0487 43.7784 26.7496C43.5859 27.8837 43.2874 28.9908 42.7907 30.0364C42.4056 30.8451 41.8029 31.39 40.9364 31.6595C39.0033 32.2603 37.0566 32.3296 35.0946 31.8444C33.7256 31.5055 32.8899 30.6429 32.5703 29.2604C32.3431 28.2784 32.2256 27.2887 32.2776 26.2855C32.293 25.9929 32.2121 25.7676 31.956 25.6694C31.7346 25.5847 31.4766 25.5442 31.2398 25.5577C30.3425 25.6116 29.4452 25.6925 28.5499 25.7676C27.9722 25.8177 27.3946 25.8754 26.8035 25.9313C26.8439 26.2971 26.8901 26.6225 26.9113 26.9498C26.9325 27.2791 26.9729 27.618 26.9209 27.9376C26.8497 28.3805 26.7727 28.8464 26.5705 29.2373C26.2393 29.8765 25.55 29.9016 25.1168 29.3278C24.9454 29.1006 24.8299 28.8252 24.7144 28.5615C24.1194 27.1963 23.2664 26.0333 22.0322 25.1803C21.5161 24.8241 20.952 24.5468 20.2973 24.6759C19.3808 24.8549 18.8783 25.5115 18.549 26.3144C18.0696 27.4793 18.162 28.677 18.4739 29.8573C18.9591 31.6923 19.7813 33.3482 21.3294 34.5246C22.2228 35.2043 23.2202 35.6915 24.4082 35.5779C24.8453 35.5355 25.1418 35.7723 25.3267 36.2229C26.2297 38.4237 26.3337 40.6919 25.9062 43.0063C25.629 44.5082 25.2362 45.9754 24.568 47.408C29.6397 50.2673 33.7833 54.2973 38.1695 58.0134C38.9378 57.4185 39.2305 56.6021 39.2805 55.6856C39.3499 54.4186 39.4962 53.167 39.8794 51.9521C40.0681 51.3552 40.2471 50.7563 40.4377 50.1383V50.1344ZM35.6587 14.881C35.6414 14.8983 35.6241 14.9156 35.6048 14.933C35.8571 15.2064 36.0977 15.4875 36.3615 15.7494C37.1028 16.483 37.9847 16.9874 38.9609 17.3437C39.0745 17.386 39.1573 17.5131 39.2555 17.6017C39.1535 17.6845 39.0591 17.8308 38.9513 17.8404C38.3274 17.8943 37.6901 18.0002 37.0759 17.9329C35.5259 17.7634 34.1453 17.1011 32.8495 16.2635C32.2853 15.8996 31.7423 15.501 31.1839 15.114C31.336 16.1171 31.311 16.5773 31.0761 17.334C30.5967 18.8744 29.528 19.9122 28.1898 20.7229C28.0743 20.7922 27.9357 20.8634 27.8741 20.9712C27.2656 22.0399 27.1173 23.224 26.9864 24.4563C28.2649 24.3023 29.4934 24.1656 30.718 24.0039C31.1782 23.9422 31.6846 23.9191 32.0774 23.7093C32.8302 23.3068 33.6216 23.0681 34.4457 22.9603C36.7871 22.6522 39.1303 22.6907 41.4544 23.1162C42.4133 23.2934 43.376 23.5591 43.7765 24.5411C44.5236 24.5411 45.2264 24.5468 45.9292 24.5353C46.037 24.5353 46.1853 24.4814 46.243 24.4024C46.5723 23.9461 47.0267 23.6631 47.5562 23.5629C48.4342 23.3973 49.3238 23.2683 50.2134 23.1836C50.8276 23.1258 51.4514 23.1721 52.0618 23.1721C52.1581 22.4231 52.0387 22.1535 51.3917 21.9744C50.8507 21.8242 50.2788 21.7357 49.7166 21.7203C49.1389 21.7029 48.5575 21.805 47.9779 21.8608C47.7199 21.8858 47.4041 21.9398 47.3097 21.6586C47.2385 21.443 47.3059 21.1503 47.3925 20.9231C47.4599 20.7479 47.6371 20.6016 47.7911 20.4745C48.3283 20.0316 48.9714 19.8121 49.6511 19.8333C50.3558 19.8545 51.0586 19.997 51.746 20.0836C51.2916 18.4277 50.3 17.0279 48.9464 15.811C48.8906 15.9843 48.8598 16.0921 48.8193 16.198C48.3707 17.3802 47.6159 18.2698 46.3894 18.6934C45.8945 18.8648 45.6153 18.6819 45.5422 18.162C45.3978 17.153 45.03 16.2365 44.2251 15.5896C43.8246 15.268 43.3067 15.087 42.8292 14.8714C42.7271 14.8251 42.5692 14.9041 42.4364 14.9253C42.471 15.0524 42.4941 15.1852 42.5461 15.3065C42.5846 15.397 42.6597 15.474 42.7214 15.553C42.964 15.861 43.2297 16.1556 43.4492 16.4791C43.6899 16.8353 43.5686 17.0914 43.1469 17.1473C42.8715 17.1838 42.5904 17.2012 42.3151 17.18C41.722 17.1338 41.1309 17.0741 40.5417 16.9932C39.2555 16.8142 38.0155 16.4868 36.9064 15.7802C36.4771 15.5048 36.0766 15.1833 35.6645 14.881H35.6587ZM49.2968 44.7912C48.8443 45.3862 48.4265 45.935 47.9856 46.5145C48.0299 46.5473 48.0876 46.58 48.1319 46.6243C48.958 47.4561 49.2872 48.4381 49.0523 49.6011C48.8521 50.5927 48.2937 51.3879 47.6544 52.1273C46.0563 53.9796 44.202 55.5642 42.3209 57.1162C41.4717 57.817 40.6033 58.4948 39.6945 59.2226C40.2683 59.6308 40.8074 60.0275 41.3658 60.3914C41.4679 60.4569 41.6854 60.4395 41.801 60.376C43.971 59.1726 46.1025 57.9075 48.0472 56.3537C49.4008 55.2716 50.6755 54.1067 51.5901 52.6144C52.6664 50.8584 52.9552 49.0465 51.696 47.252C51.255 46.6243 50.6967 46.0775 50.1652 45.5171C49.9072 45.2457 49.5914 45.0338 49.2988 44.7912H49.2968ZM37.5053 23.9519C36.3538 24.1021 35.239 24.2368 34.128 24.3947C33.7294 24.4525 33.4829 24.699 33.4098 25.1149C33.1556 26.5917 33.2865 28.0358 33.7775 29.4472C34.0221 30.1461 34.5092 30.5716 35.2332 30.7488C36.7851 31.1281 38.3428 31.1377 39.9025 30.8508C40.6438 30.7141 41.2965 30.4118 41.6623 29.6782C42.3343 28.3323 42.6886 26.9113 42.6232 25.4075C42.6135 25.1842 42.4133 24.9242 42.2304 24.7663C42.0494 24.6104 41.7856 24.5103 41.5449 24.4756C40.1951 24.285 38.8415 24.1213 37.5053 23.9519ZM52.0214 24.3254C50.637 24.2888 49.2872 24.3158 47.9625 24.6508C47.4195 24.7875 47.071 25.1457 47.0055 25.7041C46.9593 26.0911 46.9285 26.5089 47.0248 26.8786C47.2828 27.876 47.6082 28.856 47.924 29.838C47.9644 29.9651 48.0992 30.0826 48.2186 30.1577C49.3642 30.8855 50.637 30.9067 51.9232 30.768C52.4219 30.7141 52.4161 30.6737 52.3429 30.1134C52.3217 29.9497 52.3275 29.7841 52.316 29.6185C52.2197 28.3054 52.1119 26.9922 52.0271 25.679C51.9983 25.24 52.0233 24.7972 52.0233 24.3273L52.0214 24.3254ZM53.606 30.0383C54.2183 29.401 54.9077 27.2464 54.8152 26.3202C54.3223 26.3972 53.8313 26.4742 53.3134 26.5551C53.4116 27.72 53.5059 28.8599 53.6041 30.0364L53.606 30.0383ZM53.348 25.344C53.839 25.2901 54.2992 25.24 54.8711 25.1784C54.7478 24.9473 54.6978 24.6913 54.5726 24.647C54.1914 24.5103 53.7793 24.4544 53.348 24.3601V25.344Z" fill="black"/>
<path d="M52.6818 53.7562C52.3025 54.2376 51.9636 54.7151 51.5766 55.1483C48.9522 58.0866 45.7135 60.143 42.1283 61.7046C41.6931 61.8952 41.3215 61.8779 40.9076 61.6507C38.9532 60.582 37.1567 59.2958 35.47 57.844C32.7975 55.5431 30.1923 53.1593 27.2714 51.1645C25.2131 49.757 23.1278 48.388 21.0752 46.9728C20.1664 46.3451 19.3192 45.6288 18.6433 44.7393C17.8886 43.7457 18.0368 42.9139 19.1016 42.2592C19.9469 41.7394 20.8961 41.4891 21.8685 41.4159C22.7966 41.3446 23.7343 41.4005 24.7336 41.4005C24.7336 40.8652 24.7606 40.3569 24.7124 39.8543C24.7028 39.7465 24.4255 39.604 24.258 39.5809C23.7439 39.5154 23.224 39.4731 22.7042 39.4692C21.1041 39.4558 19.5194 39.5655 17.9579 39.9641C15.4856 40.5976 14.001 42.2207 13.2 44.5775C12.8304 45.6635 12.6243 46.7764 12.5223 47.9105C12.4241 48.9965 12.0409 49.9592 11.4228 50.8545C11.0512 51.3937 10.7451 51.979 10.4235 52.5509C10.3465 52.6876 10.3272 52.8551 10.2887 52.9822C11.1244 52.7184 11.935 52.4238 12.7668 52.2082C14.0511 51.877 15.3566 51.9309 16.6563 52.1196C20.5476 52.6837 24.025 54.3589 27.4524 56.165C30.1134 57.5667 32.7686 58.9781 35.4238 60.3914C35.6664 60.5204 35.9052 60.6725 36.1131 60.8516C36.2094 60.9344 36.3076 61.15 36.2653 61.2271C36.2017 61.3407 36.0034 61.4581 35.8782 61.4446C35.3179 61.3792 34.7461 61.3233 34.2069 61.1635C31.777 60.4472 29.4934 59.3632 27.2021 58.3023C25.1283 57.3415 23.0777 56.3229 20.9866 55.4006C19.1228 54.5784 17.1723 53.995 15.1525 53.7004C13.4696 53.4559 11.9523 53.9931 10.5352 54.8576C8.12835 56.3267 6.34537 58.3947 4.88394 60.7688C4.65095 61.1462 4.43145 61.5293 4.19269 61.9029C4.11182 62.03 4.01555 62.1975 3.89425 62.2341C3.67089 62.3015 3.40325 62.3496 3.19145 62.2841C2.95462 62.211 2.98157 61.9645 3.04126 61.7296C3.36282 60.4973 4.0117 59.4306 4.72412 58.4005C5.88711 56.7176 7.28692 55.2562 9.00059 54.0932C8.61935 52.9841 9.00637 52.006 9.52817 51.0625C9.76115 50.6427 10.0038 50.2211 10.2964 49.8437C10.8953 49.0735 11.0358 48.1704 11.1379 47.2501C11.3362 45.4632 11.781 43.7534 12.6532 42.1668C13.7199 40.226 15.4278 39.1727 17.515 38.6528C19.3481 38.1965 21.2081 38.0232 23.0931 38.1772C23.2548 38.1907 23.4204 38.1772 23.6573 38.1772C23.0315 37.4417 22.6175 36.6118 21.6779 36.221C20.2877 35.6433 19.3461 34.54 18.6241 33.2557C17.6325 31.4978 17.0028 29.6243 17.1068 27.5814C17.1376 26.9652 17.3956 26.3645 17.5246 25.7503C17.5709 25.5288 17.6132 25.2689 17.542 25.0667C17.0337 23.6284 16.5427 22.1824 15.9554 20.7768C15.2853 19.1767 15.243 17.5843 15.8014 15.9689C16.2577 14.6442 16.6986 13.3059 17.6171 12.2027C18.5875 11.0377 19.7505 10.2329 21.3429 10.2059C21.4988 10.204 21.701 10.0307 21.7992 9.88246C22.4539 8.88507 23.2414 8.02246 24.2234 7.33507C25.4942 6.44742 26.946 6.05463 28.4247 5.68879C29.84 5.34028 31.2494 4.94363 32.6338 4.48922C34.1338 3.9963 35.6183 3.45717 37.2068 3.33779C38.9821 3.20493 40.6476 3.57847 42.215 4.43531C43.2663 5.01102 44.3137 5.59059 45.5037 5.86593C46.7533 6.15475 47.9548 6.15475 49.1158 5.53283C49.4894 5.33258 49.9804 5.65413 49.9496 6.09891C49.9284 6.41662 49.809 6.73432 49.6973 7.04047C49.576 7.36972 49.4143 7.68165 49.2776 7.98395C49.9303 8.15147 50.5715 8.27662 51.1876 8.48072C53.1747 9.13346 54.2896 10.566 54.7671 12.5569C54.8499 12.8997 54.9462 13.2405 55.0771 13.5659C55.3409 14.2205 55.8357 14.5575 56.552 14.544C56.6021 14.544 56.6541 14.544 56.7041 14.544C57.4011 14.544 57.5552 14.7866 57.1855 15.3855C56.5674 16.3848 55.6624 16.9489 54.486 17.0587C54.4128 17.0664 54.3377 17.0587 54.3281 17.0587C54.2954 17.6652 54.3127 18.2429 54.2241 18.8051C54.1201 19.4617 53.7659 20.0066 53.2152 20.3994C53.065 20.5072 53.0245 20.5977 53.065 20.8018C53.2229 21.5912 53.3403 22.3884 53.4655 23.149C54.226 23.3492 55.0213 23.534 55.8011 23.7709C56.2844 23.9172 56.6001 24.2927 56.6579 24.7895C56.7157 25.2804 56.5809 25.7387 56.1419 26.0583C56.0591 26.118 56.0109 26.2547 55.9878 26.3645C55.7626 27.5024 55.5546 28.6442 55.0675 29.711C54.794 30.3098 54.4128 30.8123 53.8698 31.2051C53.7447 31.2956 53.6965 31.5729 53.7081 31.7577C53.8467 33.9913 53.4289 36.1362 52.7184 38.2369C52.0849 40.1123 51.1973 41.8645 50.2268 43.3587C50.9142 44.1289 51.5727 44.8625 52.2274 45.6019C53.038 46.5165 53.6638 47.5331 53.8429 48.7654C54.0162 49.9534 53.8563 51.1106 53.4193 52.2293C53.3962 52.2871 53.3846 52.3468 53.3808 52.3564C54.3608 52.8647 55.3505 53.3172 56.2805 53.8718C59.3786 55.7125 61.5467 58.3889 63.062 61.6198C63.3932 62.3265 63.6493 63.0678 63.94 63.7918C63.9631 63.8495 63.9805 63.9131 63.9882 63.9747C64.0498 64.4618 63.8688 64.8315 63.5164 64.9471C63.1313 65.0741 62.8213 64.9297 62.5845 64.4368C62.0954 63.4125 61.6622 62.3611 61.1616 61.3426C59.3574 57.6803 56.4846 55.2042 52.678 53.7447L52.6818 53.7562ZM40.4377 50.1344C40.2645 50.1113 40.1143 50.0978 39.966 50.069C38.1638 49.7301 36.5233 49.0003 34.9925 48.0087C34.128 47.4484 33.2923 46.8496 32.6377 46.0409C32.3007 45.623 32.2526 45.2726 32.4528 45.0858C32.6569 44.8952 32.9977 44.978 33.4233 45.2534C34.463 45.9253 35.4816 46.6455 36.5733 47.225C38.3525 48.1704 40.2336 48.8251 42.2977 48.7211C43.1373 48.6788 43.919 48.4458 44.6006 47.9452C45.7386 47.1134 46.6782 46.0813 47.5119 44.9549C50.0112 41.5738 52.0772 37.9963 52.4469 33.6851C52.5027 33.0382 52.4546 32.3835 52.4546 31.7211C51.1029 31.9946 49.8109 31.8771 48.5767 31.4978C48.6075 32.0543 48.6768 32.5915 48.6595 33.1267C48.6325 34.0125 47.9163 34.9059 47.0614 35.1408C46.037 35.4219 45.1166 35.0387 44.2271 34.6017C44.1058 34.542 43.9999 34.2166 44.0557 34.0914C44.1231 33.9431 44.3773 33.7872 44.5448 33.793C44.9973 33.8064 45.4497 33.8854 45.8965 33.9701C46.9381 34.1684 47.562 33.5061 47.4368 32.6897C47.3483 32.1082 47.1673 31.5402 47.0152 30.9702C46.6185 29.4857 46.1987 28.0088 45.8252 26.5205C45.6519 25.8292 45.6904 25.8196 44.9395 25.8388C44.8625 25.8408 44.7874 25.8369 44.7104 25.8446C44.0018 25.9178 43.8978 26.0487 43.7784 26.7496C43.5859 27.8837 43.2874 28.9908 42.7907 30.0364C42.4056 30.8451 41.8029 31.39 40.9364 31.6595C39.0033 32.2603 37.0566 32.3296 35.0946 31.8444C33.7256 31.5055 32.8899 30.6429 32.5703 29.2604C32.3431 28.2784 32.2256 27.2887 32.2776 26.2855C32.293 25.9929 32.2121 25.7676 31.956 25.6694C31.7346 25.5847 31.4766 25.5442 31.2398 25.5577C30.3425 25.6116 29.4452 25.6925 28.5499 25.7676C27.9722 25.8177 27.3946 25.8754 26.8035 25.9313C26.8439 26.2971 26.8901 26.6225 26.9113 26.9498C26.9325 27.2791 26.9729 27.618 26.9209 27.9376C26.8497 28.3805 26.7727 28.8464 26.5705 29.2373C26.2393 29.8765 25.55 29.9016 25.1168 29.3278C24.9454 29.1006 24.8299 28.8252 24.7144 28.5615C24.1194 27.1963 23.2664 26.0333 22.0322 25.1803C21.5161 24.8241 20.952 24.5468 20.2973 24.6759C19.3808 24.8549 18.8783 25.5115 18.549 26.3144C18.0696 27.4793 18.162 28.677 18.4739 29.8573C18.9591 31.6923 19.7813 33.3482 21.3294 34.5246C22.2228 35.2043 23.2202 35.6915 24.4082 35.5779C24.8453 35.5355 25.1418 35.7723 25.3267 36.2229C26.2297 38.4237 26.3337 40.6919 25.9062 43.0063C25.629 44.5082 25.2362 45.9754 24.568 47.408C29.6397 50.2673 33.7833 54.2973 38.1695 58.0134C38.9378 57.4185 39.2305 56.6021 39.2805 55.6856C39.3499 54.4186 39.4962 53.167 39.8794 51.9521C40.0681 51.3552 40.2471 50.7563 40.4377 50.1383V50.1344ZM35.6587 14.881C35.6414 14.8983 35.6241 14.9156 35.6048 14.933C35.8571 15.2064 36.0977 15.4875 36.3615 15.7494C37.1028 16.483 37.9847 16.9874 38.9609 17.3437C39.0745 17.386 39.1573 17.5131 39.2555 17.6017C39.1535 17.6845 39.0591 17.8308 38.9513 17.8404C38.3274 17.8943 37.6901 18.0002 37.0759 17.9329C35.5259 17.7634 34.1453 17.1011 32.8495 16.2635C32.2853 15.8996 31.7423 15.501 31.1839 15.114C31.336 16.1171 31.311 16.5773 31.0761 17.334C30.5967 18.8744 29.528 19.9122 28.1898 20.7229C28.0743 20.7922 27.9357 20.8634 27.8741 20.9712C27.2656 22.0399 27.1173 23.224 26.9864 24.4563C28.2649 24.3023 29.4934 24.1656 30.718 24.0039C31.1782 23.9422 31.6846 23.9191 32.0774 23.7093C32.8302 23.3068 33.6216 23.0681 34.4457 22.9603C36.7871 22.6522 39.1303 22.6907 41.4544 23.1162C42.4133 23.2934 43.376 23.5591 43.7765 24.5411C44.5236 24.5411 45.2264 24.5468 45.9292 24.5353C46.037 24.5353 46.1853 24.4814 46.243 24.4024C46.5723 23.9461 47.0267 23.6631 47.5562 23.5629C48.4342 23.3973 49.3238 23.2683 50.2134 23.1836C50.8276 23.1258 51.4514 23.1721 52.0618 23.1721C52.1581 22.4231 52.0387 22.1535 51.3917 21.9744C50.8507 21.8242 50.2788 21.7357 49.7166 21.7203C49.1389 21.7029 48.5575 21.805 47.9779 21.8608C47.7199 21.8858 47.4041 21.9398 47.3097 21.6586C47.2385 21.443 47.3059 21.1503 47.3925 20.9231C47.4599 20.7479 47.6371 20.6016 47.7911 20.4745C48.3283 20.0316 48.9714 19.8121 49.6511 19.8333C50.3558 19.8545 51.0586 19.997 51.746 20.0836C51.2916 18.4277 50.3 17.0279 48.9464 15.811C48.8906 15.9843 48.8598 16.0921 48.8193 16.198C48.3707 17.3802 47.6159 18.2698 46.3894 18.6934C45.8945 18.8648 45.6153 18.6819 45.5422 18.162C45.3978 17.153 45.03 16.2365 44.2251 15.5896C43.8246 15.268 43.3067 15.087 42.8292 14.8714C42.7271 14.8251 42.5692 14.9041 42.4364 14.9253C42.471 15.0524 42.4941 15.1852 42.5461 15.3065C42.5846 15.397 42.6597 15.474 42.7214 15.553C42.964 15.861 43.2297 16.1556 43.4492 16.4791C43.6899 16.8353 43.5686 17.0914 43.1469 17.1473C42.8715 17.1838 42.5904 17.2012 42.3151 17.18C41.722 17.1338 41.1309 17.0741 40.5417 16.9932C39.2555 16.8142 38.0155 16.4868 36.9064 15.7802C36.4771 15.5048 36.0766 15.1833 35.6645 14.881H35.6587ZM49.2968 44.7912C48.8443 45.3862 48.4265 45.935 47.9856 46.5145C48.0299 46.5473 48.0876 46.58 48.1319 46.6243C48.958 47.4561 49.2872 48.4381 49.0523 49.6011C48.8521 50.5927 48.2937 51.3879 47.6544 52.1273C46.0563 53.9796 44.202 55.5642 42.3209 57.1162C41.4717 57.817 40.6033 58.4948 39.6945 59.2226C40.2683 59.6308 40.8074 60.0275 41.3658 60.3914C41.4679 60.4569 41.6854 60.4395 41.801 60.376C43.971 59.1726 46.1025 57.9075 48.0472 56.3537C49.4008 55.2716 50.6755 54.1067 51.5901 52.6144C52.6664 50.8584 52.9552 49.0465 51.696 47.252C51.255 46.6243 50.6967 46.0775 50.1652 45.5171C49.9072 45.2457 49.5914 45.0338 49.2988 44.7912H49.2968ZM37.5053 23.9519C36.3538 24.1021 35.239 24.2368 34.128 24.3947C33.7294 24.4525 33.4829 24.699 33.4098 25.1149C33.1556 26.5917 33.2865 28.0358 33.7775 29.4472C34.0221 30.1461 34.5092 30.5716 35.2332 30.7488C36.7851 31.1281 38.3428 31.1377 39.9025 30.8508C40.6438 30.7141 41.2965 30.4118 41.6623 29.6782C42.3343 28.3323 42.6886 26.9113 42.6232 25.4075C42.6135 25.1842 42.4133 24.9242 42.2304 24.7663C42.0494 24.6104 41.7856 24.5103 41.5449 24.4756C40.1951 24.285 38.8415 24.1213 37.5053 23.9519ZM52.0214 24.3254C50.637 24.2888 49.2872 24.3158 47.9625 24.6508C47.4195 24.7875 47.071 25.1457 47.0055 25.7041C46.9593 26.0911 46.9285 26.5089 47.0248 26.8786C47.2828 27.876 47.6082 28.856 47.924 29.838C47.9644 29.9651 48.0992 30.0826 48.2186 30.1577C49.3642 30.8855 50.637 30.9067 51.9232 30.768C52.4219 30.7141 52.4161 30.6737 52.3429 30.1134C52.3217 29.9497 52.3275 29.7841 52.316 29.6185C52.2197 28.3054 52.1119 26.9922 52.0271 25.679C51.9983 25.24 52.0233 24.7972 52.0233 24.3273L52.0214 24.3254ZM53.606 30.0383C54.2183 29.401 54.9077 27.2464 54.8152 26.3202C54.3223 26.3972 53.8313 26.4742 53.3134 26.5551C53.4116 27.72 53.5059 28.8599 53.6041 30.0364L53.606 30.0383ZM53.348 25.344C53.839 25.2901 54.2992 25.24 54.8711 25.1784C54.7478 24.9473 54.6978 24.6913 54.5726 24.647C54.1914 24.5103 53.7793 24.4544 53.348 24.3601V25.344Z" stroke="white" stroke-width="4.10975" mask="url(#path-3-outside-1_18_308)"/>
<path d="M20.3044 24.7083C20.9439 24.5823 21.4995 24.8516 22.0115 25.2063C23.2371 26.0547 24.0876 27.2123 24.6804 28.5725C24.7953 28.835 24.9131 29.1146 25.0876 29.346C25.3099 29.6404 25.6011 29.7859 25.8835 29.7708C26.1666 29.7555 26.4328 29.5793 26.6033 29.2503C26.8085 28.8534 26.8857 28.3814 26.9568 27.9397C27.0096 27.6129 26.969 27.2698 26.948 26.9436C26.9274 26.6263 26.8828 26.3099 26.8435 25.9602C27.4239 25.9054 27.9871 25.8472 28.5525 25.8001H28.5535C29.4488 25.7231 30.3454 25.644 31.2419 25.5901C31.4735 25.577 31.7265 25.6166 31.9431 25.6995C32.0615 25.7453 32.1379 25.8201 32.1843 25.9163C32.2312 26.0139 32.2484 26.1368 32.241 26.2796C32.1888 27.2888 32.3071 28.2804 32.5349 29.2649C32.6959 29.9613 32.9867 30.5287 33.4118 30.9651C33.784 31.347 34.2573 31.6275 34.8327 31.8059L35.0857 31.8763C37.0563 32.365 39.0077 32.2933 40.947 31.6907C41.8237 31.418 42.4347 30.8656 42.824 30.0481C43.3225 28.9989 43.6213 27.8884 43.8142 26.7522C43.8742 26.3998 43.9297 26.2042 44.0495 26.0843C44.1687 25.9651 44.3585 25.9139 44.7136 25.8772C44.787 25.8697 44.8593 25.8734 44.9402 25.8714C45.1285 25.8665 45.2648 25.8636 45.3669 25.8724C45.4689 25.8811 45.5315 25.9015 45.5759 25.9378C45.6205 25.9742 45.6525 26.0315 45.6843 26.1272C45.7162 26.2233 45.7461 26.3515 45.7898 26.5257C46.1634 28.0142 46.5848 29.4943 46.9792 30.9759C47.132 31.5481 47.312 32.1128 47.4001 32.6917C47.461 33.0889 47.3399 33.4454 47.0798 33.679C46.8195 33.9126 46.4151 34.0275 45.9031 33.93C45.4564 33.8453 45.0012 33.7658 44.5456 33.7522C44.452 33.7491 44.3396 33.7905 44.2439 33.8489C44.1719 33.8929 44.1044 33.9501 44.0593 34.011L44.0222 34.0725C44.0046 34.1121 44.0014 34.1636 44.0056 34.2151C44.0099 34.2675 44.0217 34.3248 44.0398 34.3792C44.0579 34.4336 44.0821 34.4867 44.1101 34.5306C44.1376 34.5736 44.1715 34.6119 44.2107 34.6311C45.1001 35.0682 46.0321 35.4573 47.071 35.1722C47.941 34.9331 48.6685 34.0264 48.696 33.1243C48.7129 32.6037 48.6478 32.0766 48.616 31.5433C49.8286 31.9099 51.0951 32.0228 52.4177 31.761C52.4197 32.4137 52.4643 33.049 52.4099 33.678C52.0411 37.9789 49.9801 41.5497 47.4822 44.929C46.6499 46.0534 45.7109 47.0825 44.5788 47.9114C43.904 48.4052 43.1274 48.6389 42.2956 48.6809C40.2408 48.7844 38.3666 48.1325 36.5906 47.1888C35.5007 46.6102 34.4864 45.894 33.4431 45.219C33.2287 45.0803 33.0326 44.988 32.862 44.9554C32.6904 44.9226 32.5405 44.9494 32.4275 45.055C32.3163 45.1586 32.2765 45.3071 32.3074 45.4798C32.338 45.6511 32.4386 45.8484 32.6091 46.0599C33.2657 46.8752 34.1074 47.4767 34.9724 48.0354C36.5062 49.029 38.1511 49.7609 39.9587 50.1009H39.9597C40.0946 50.1257 40.2349 50.1403 40.3904 50.1614C40.204 50.7663 40.0292 51.3524 39.8445 51.9368C39.46 53.156 39.3133 54.4117 39.2439 55.68C39.1947 56.58 38.9095 57.3764 38.1697 57.9612C33.803 54.2598 29.6676 50.2444 24.614 47.389C25.2735 45.9623 25.6645 44.5022 25.9421 43.0091C26.3706 40.6893 26.2663 38.4139 25.3601 36.2054C25.266 35.9761 25.1423 35.7974 24.9831 35.6819C24.8234 35.5661 24.6312 35.5156 24.405 35.5374C23.2282 35.6497 22.2413 35.1685 21.3513 34.4915C19.8122 33.3237 18.9935 31.6745 18.5095 29.844C18.1986 28.6696 18.1076 27.479 18.5827 26.3245C18.9098 25.5289 19.4071 24.8859 20.3044 24.7083ZM39.0066 36.2366C38.5116 36.1658 38.0102 36.1461 37.5007 36.262C36.8152 36.4182 36.3412 36.6157 36.0564 36.9212C35.7694 37.2291 35.6807 37.6405 35.7478 38.2083C35.7771 38.4601 35.843 38.7117 35.9285 38.9505C36.4346 40.3543 37.4324 41.3614 38.6179 42.1917C39.9957 43.1566 41.4841 43.8668 43.2136 43.9075L43.3054 43.9095L43.3005 43.9046C44.8373 43.9142 46.0064 43.2376 46.8816 41.9876C47.5451 41.0416 47.9355 39.9703 48.3318 38.9085C48.4508 38.586 48.574 38.3132 48.907 38.1429C48.9514 38.1204 48.994 38.0812 49.031 38.0354C49.0682 37.9893 49.1015 37.9341 49.1286 37.8772C49.1558 37.8203 49.177 37.7604 49.1882 37.7044C49.1993 37.649 49.2014 37.5936 49.1872 37.5481C49.1554 37.4474 49.067 37.365 48.9695 37.2962C48.8714 37.227 48.7549 37.1652 48.6609 37.1097C48.6081 37.0792 48.5424 37.0747 48.4812 37.0774C48.45 37.0788 48.4179 37.0827 48.3874 37.0862C48.3569 37.0897 48.328 37.0927 48.3005 37.095C47.6537 37.1433 47.0132 37.2146 46.3689 37.2434C44.3679 37.3299 42.4321 36.8803 40.4792 36.5198C39.9936 36.43 39.4997 36.3072 39.0066 36.2366ZM21.9372 27.0979C21.4849 26.698 20.9604 26.4199 20.3103 26.638C20.1133 26.704 19.9662 26.8012 19.8786 26.928C19.7905 27.0558 19.7659 27.21 19.8054 27.3821C19.8491 27.5659 19.9441 27.6765 20.071 27.7347C20.1956 27.7917 20.3462 27.7962 20.4978 27.7796C20.8087 27.7444 21.0553 27.8534 21.2302 28.0872C21.4465 28.3762 21.6386 28.6866 21.8132 29.0052C21.8201 29.0179 21.8254 29.0373 21.8269 29.0628C21.8284 29.088 21.8263 29.1167 21.821 29.1458C21.8156 29.1756 21.807 29.2044 21.7966 29.2288L21.7605 29.2874C21.3651 29.6968 21.2409 30.1949 21.237 30.7356L21.2556 31.0638C21.3317 31.8137 21.6408 32.4569 22.3015 32.9241C22.4365 33.0191 22.5793 33.0666 22.7185 33.0569C22.8582 33.0472 22.9901 32.9801 23.1033 32.8528C23.2126 32.7291 23.2381 32.6069 23.2146 32.4837C23.1917 32.3644 23.123 32.2455 23.0515 32.1263C22.8153 31.7345 22.5971 31.3212 22.4577 30.8919C22.4334 30.8155 22.4461 30.7082 22.4841 30.596C22.5218 30.4848 22.5827 30.3744 22.6462 30.2962C22.9913 29.8711 23.1727 29.4277 23.0202 28.8694C22.8279 28.1721 22.4743 27.5747 21.9372 27.0979Z" fill="white" stroke="black" stroke-width="0.0733884"/>
<path d="M42.6476 14.909C42.7161 14.8925 42.7693 14.8878 42.8077 14.905H42.8087C43.2904 15.1226 43.8008 15.3004 44.1964 15.6179C44.9914 16.257 45.3565 17.1642 45.5001 18.1677C45.5383 18.4318 45.6295 18.6199 45.7833 18.7175C45.9376 18.8155 46.1436 18.8156 46.3956 18.7283C47.6344 18.3004 48.3962 17.4014 48.8478 16.2117C48.8841 16.1166 48.9124 16.0166 48.9571 15.8767C50.2725 17.0678 51.2346 18.4304 51.6886 20.0388C51.0242 19.9522 50.3359 19.8192 49.6466 19.7966C48.9598 19.7752 48.3077 19.9977 47.7618 20.4461C47.6852 20.5093 47.6003 20.579 47.5265 20.655C47.4528 20.7309 47.388 20.8157 47.3526 20.9099C47.3087 21.0252 47.2694 21.158 47.2501 21.2898C47.2309 21.4213 47.2306 21.5553 47.2687 21.6707C47.2945 21.7476 47.3372 21.8028 47.3907 21.8416C47.4438 21.88 47.5062 21.9002 47.5714 21.9099C47.6999 21.929 47.8499 21.9085 47.9757 21.8972C48.5589 21.841 49.1355 21.7413 49.7101 21.7566C50.1292 21.7681 50.5538 21.8215 50.9669 21.9099L51.3761 22.0095C51.6969 22.0993 51.8755 22.2083 51.9669 22.3777C52.0568 22.5445 52.0661 22.7786 52.0226 23.1345C51.4263 23.1329 50.8093 23.0903 50.2042 23.1472C49.3135 23.2301 48.4248 23.3614 47.5441 23.5271H47.5431C47.0046 23.6291 46.5418 23.9169 46.2071 24.3806V24.3816C46.1841 24.4137 46.1396 24.443 46.0851 24.4646C46.0313 24.4859 45.9719 24.4979 45.923 24.4988C45.2279 24.5102 44.5328 24.5048 43.7941 24.5047C43.4319 23.6437 42.6425 23.3318 41.8146 23.1511L41.4552 23.0799C39.1291 22.6517 36.7796 22.6151 34.4347 22.9236C33.6067 23.032 32.8108 23.2719 32.0538 23.6765C31.8626 23.7787 31.6426 23.8363 31.4112 23.8758C31.1786 23.9154 30.9398 23.9364 30.7071 23.9675C29.4974 24.1273 28.2841 24.262 27.0216 24.4138C27.1514 23.1979 27.304 22.0377 27.9005 20.99C27.9274 20.943 27.9723 20.9018 28.0275 20.8631C28.0828 20.8242 28.144 20.7902 28.2032 20.7547C29.5439 19.9414 30.6225 18.8972 31.1056 17.3455C31.2236 16.9653 31.289 16.6572 31.3058 16.3181C31.3216 15.9985 31.2919 15.6525 31.2247 15.1922C31.7583 15.5636 32.2816 15.9452 32.8233 16.2947C34.1215 17.1338 35.5085 17.7992 37.0665 17.9695C37.6872 18.0373 38.3288 17.9303 38.9483 17.8767C39.0163 17.8707 39.0762 17.8231 39.1261 17.7752C39.1517 17.7505 39.1771 17.7229 39.2013 17.698C39.2259 17.6727 39.2492 17.649 39.2726 17.6297L39.3058 17.6033L39.2745 17.575C39.2262 17.5314 39.1842 17.4807 39.1339 17.4295C39.0861 17.3807 39.0325 17.3334 38.9679 17.3093L38.6075 17.1687C37.8967 16.8741 37.2425 16.4913 36.6642 15.9861L36.3819 15.7234C36.1271 15.4705 35.8942 15.2008 35.6495 14.9343C35.6522 14.9318 35.6547 14.9291 35.6573 14.9265C36.0618 15.2211 36.4577 15.5399 36.881 15.8113C37.9942 16.5218 39.2417 16.8506 40.5304 17.03H40.5314C41.1212 17.111 41.7132 17.1722 42.3067 17.2166C42.5852 17.238 42.8712 17.2222 43.1466 17.1834L43.1456 17.1824C43.3618 17.1529 43.5136 17.0726 43.5743 16.9402C43.6198 16.8405 43.6098 16.7212 43.5499 16.5916L43.4737 16.4588C43.3634 16.2952 43.2419 16.1392 43.1173 15.9861L42.7442 15.53C42.6779 15.4477 42.6103 15.3769 42.5743 15.2927V15.2918C42.5495 15.2338 42.531 15.1728 42.5148 15.1091C42.5018 15.0582 42.4888 15.0047 42.4747 14.9519C42.4974 14.9469 42.5207 14.9434 42.5431 14.9373C42.579 14.9274 42.6139 14.9171 42.6476 14.909ZM37.5235 19.4675C36.5137 19.4857 35.6252 19.5929 34.8126 20.0418C34.2759 20.3383 33.8023 20.7339 33.6017 21.3377C33.5634 21.4537 33.5493 21.6004 33.5607 21.739C33.572 21.8771 33.6097 22.0132 33.6817 22.1033C33.7152 22.145 33.7643 22.1701 33.8185 22.1863C33.8729 22.2025 33.9362 22.2111 34.0011 22.2156C34.0659 22.2201 34.1352 22.2216 34.2013 22.2234C34.2678 22.2252 34.3316 22.2272 34.3888 22.2341C34.4468 22.2411 34.507 22.2198 34.5538 22.2029C36.6659 21.4894 38.8141 21.5199 40.9884 21.866C41.1018 21.8844 41.2412 21.8717 41.3683 21.8347C41.4947 21.7979 41.6155 21.7359 41.6866 21.6521C41.7517 21.5758 41.7725 21.4475 41.7696 21.322C41.7674 21.2262 41.7506 21.1257 41.7247 21.0388L41.6964 20.9568L41.6066 20.781C41.3738 20.3951 40.9799 20.1737 40.5665 20.0144C39.5579 19.6272 38.5015 19.5099 37.5431 19.4656L37.5275 19.4646L37.5235 19.4675Z" fill="white" stroke="black" stroke-width="0.0733884"/>
<path d="M49.3019 44.8421C49.5903 45.0782 49.8907 45.2814 50.1369 45.5423C50.6696 46.1021 51.2273 46.6481 51.6642 47.2728C52.2894 48.1637 52.5295 49.0576 52.4806 49.9457C52.4317 50.8344 52.0929 51.7204 51.5568 52.5951C50.6456 54.0818 49.3772 55.2442 48.0226 56.3255C46.0804 57.8774 43.9509 59.1429 41.7814 60.3441C41.7288 60.3734 41.6507 60.3929 41.5734 60.3968C41.5148 60.3997 41.4609 60.3932 41.4201 60.3783L41.3839 60.3607C40.8389 60.0055 40.3149 59.6174 39.7531 59.2201C40.6475 58.5043 41.5046 57.836 42.3419 57.1449C44.2231 55.5911 46.0796 54.0064 47.6798 52.1517C48.3203 51.411 48.8839 50.6096 49.0861 49.6087C49.3235 48.4332 48.9902 47.4388 48.1564 46.599L48.1554 46.598C48.1311 46.5738 48.1032 46.5536 48.0773 46.5355C48.062 46.5248 48.0484 46.5151 48.0353 46.5062C48.4607 45.9471 48.8657 45.4157 49.3019 44.8421Z" fill="white" stroke="black" stroke-width="0.0733884"/>
<path d="M54.782 26.3642C54.816 26.8231 54.6727 27.5653 54.4422 28.2783C54.324 28.644 54.1833 29.0004 54.035 29.3047C53.9048 29.5716 53.7664 29.7942 53.6346 29.9502C53.5398 28.8151 53.4463 27.7111 53.3533 26.5879C53.8451 26.5111 54.3131 26.4375 54.782 26.3642Z" fill="white" stroke="black" stroke-width="0.0733884"/>
<path d="M53.3851 24.4051C53.8031 24.4944 54.1928 24.5505 54.5599 24.6815C54.5812 24.689 54.6033 24.7073 54.6253 24.7381C54.6471 24.7687 54.6674 24.809 54.6888 24.8572C54.7251 24.9393 54.7664 25.0445 54.8167 25.1473C54.2821 25.2047 53.8463 25.2519 53.3851 25.3026V24.4051Z" fill="white" stroke="black" stroke-width="0.0733884"/>
<path d="M37.5148 36.3316C38.0123 36.2184 38.504 36.2379 38.9943 36.3081C39.4865 36.3786 39.9715 36.4992 40.4641 36.5903C42.4137 36.9499 44.3598 37.4037 46.3693 37.315C46.6922 37.3005 47.0155 37.2751 47.3381 37.2476L48.3039 37.1665C48.3331 37.1645 48.3639 37.161 48.3937 37.1577C48.4241 37.1544 48.454 37.1513 48.4826 37.1499C48.5409 37.1471 48.5886 37.1519 48.6223 37.1714C48.721 37.2281 48.8317 37.2871 48.926 37.354C48.9973 37.4047 49.0547 37.4569 49.0891 37.5122L49.1154 37.5689C49.1242 37.5976 49.1243 37.6387 49.1144 37.688C49.1046 37.7368 49.0857 37.791 49.0607 37.8433C49.0225 37.9231 48.9723 37.9945 48.9221 38.0396L48.8713 38.0757C48.5118 38.2597 48.3805 38.5592 48.2609 38.8814C47.866 39.9468 47.4767 41.007 46.8195 41.9439C45.9401 43.1998 44.763 43.8669 43.2111 43.8306L43.1437 43.8286C41.6767 43.7785 40.3844 43.2418 39.1779 42.4761L38.6584 42.1294C37.4795 41.3058 36.4962 40.3095 35.9953 38.9234C35.9114 38.6906 35.847 38.4427 35.8185 38.1978C35.7529 37.6424 35.842 37.2565 36.1086 36.9702C36.3774 36.6817 36.832 36.4872 37.5148 36.3316ZM37.801 37.2935C37.6377 37.2793 37.4959 37.3209 37.382 37.4058C37.2968 37.4694 37.2283 37.557 37.1779 37.6607L37.133 37.7691C37.0845 37.9156 37.0679 38.0631 37.0988 38.1997C37.13 38.3373 37.209 38.4618 37.3488 38.5601C37.5977 38.7371 37.8492 38.934 38.1252 39.0747L38.2453 39.1314C38.868 39.4051 39.5049 39.6582 40.1535 39.8628C41.8626 40.3979 43.5858 40.9117 45.4201 40.8325C45.6256 40.8237 45.8051 40.7782 45.9533 40.688C46.1019 40.5975 46.2173 40.4633 46.2961 40.2808C46.539 39.7179 46.7454 39.1386 46.9855 38.52L47.0051 38.4702H46.3312C46.0771 38.4683 45.818 38.4816 45.5656 38.4859C45.3115 38.4902 45.0607 38.4857 44.8166 38.4458C43.0375 38.157 41.2668 37.8156 39.4904 37.5073C38.931 37.4109 38.3659 37.3417 37.801 37.2935Z" fill="black" stroke="black" stroke-width="0.0733884"/>
<path d="M20.3337 26.7073C20.8702 26.5274 21.319 26.7011 21.7195 27.012L21.8884 27.1526C22.414 27.6173 22.761 28.2039 22.9499 28.8889C23.0958 29.4165 22.9269 29.836 22.5886 30.2503C22.5192 30.3349 22.455 30.4526 22.4148 30.5716C22.3749 30.6894 22.357 30.8156 22.3884 30.9143C22.5302 31.3512 22.7507 31.7698 22.988 32.1634C23.0609 32.2847 23.1223 32.3929 23.1423 32.4973C23.1615 32.5977 23.143 32.697 23.0486 32.804C22.9461 32.9202 22.8306 32.9775 22.7126 32.9856C22.5943 32.9938 22.4682 32.9531 22.3445 32.8645V32.8636C21.6133 32.3464 21.3238 31.6104 21.3103 30.7356C21.3141 30.204 21.4341 29.7295 21.8142 29.3382C21.8542 29.2969 21.8812 29.2266 21.8933 29.1604C21.9052 29.095 21.9047 29.0205 21.8777 28.97C21.7472 28.7293 21.6043 28.4936 21.449 28.2669L21.2898 28.0432L21.2136 27.9534C21.029 27.7604 20.7837 27.6732 20.49 27.7063C20.3441 27.7224 20.2091 27.7171 20.1023 27.6682C19.998 27.6206 19.9158 27.5298 19.8767 27.3655C19.8403 27.2106 19.8633 27.0784 19.9382 26.97C20.014 26.8605 20.1458 26.7703 20.3337 26.7073Z" fill="black" stroke="black" stroke-width="0.0733884"/>
<path d="M37.5533 19.5413C38.5046 19.586 39.5454 19.7043 40.5377 20.0852C41.0049 20.2652 41.4304 20.5185 41.6266 20.9875C41.665 21.0801 41.6912 21.207 41.694 21.3264C41.6968 21.4478 41.675 21.5511 41.6285 21.6057C41.5707 21.6738 41.4662 21.7302 41.3463 21.7649C41.227 21.7994 41.0981 21.8115 40.9977 21.7961C38.8168 21.4491 36.6555 21.4171 34.5279 22.136C34.5031 22.1439 34.4806 22.1519 34.4576 22.1575C34.4346 22.163 34.4141 22.1655 34.3961 22.1633C34.3351 22.1564 34.2675 22.1543 34.2008 22.1526C34.1337 22.1508 34.0672 22.1492 34.0045 22.1448C33.9416 22.1403 33.8843 22.1325 33.8375 22.1184C33.8139 22.1113 33.7938 22.1029 33.777 22.093L33.7369 22.0598C33.6779 21.9852 33.6423 21.8658 33.6315 21.7346C33.6207 21.6043 33.6348 21.4678 33.6695 21.3625C33.8617 20.7841 34.3164 20.4003 34.8463 20.1077C35.647 19.6654 36.5276 19.5586 37.5387 19.5432L37.5533 19.5422V19.5413Z" fill="black" stroke="black" stroke-width="0.0733884"/>
<path d="M38.3882 25.4592C38.4814 25.4347 38.5936 25.4258 38.7036 25.4661C38.8595 25.5232 38.9884 25.6639 39.0611 25.8791C39.3385 26.7077 39.21 27.5299 38.9566 28.344C38.917 28.4694 38.8477 28.5634 38.7554 28.6282C38.6626 28.6931 38.5446 28.7302 38.4077 28.7385H38.4068C38.328 28.7436 38.1459 28.7507 37.9732 28.6252C37.8723 28.551 37.8133 28.4601 37.7808 28.3948L37.7564 28.3401C37.7353 28.2451 37.6524 27.8632 37.6177 27.4094C37.5822 26.9459 37.5973 26.4142 37.773 26.0354H37.7739C37.8222 25.9305 37.9143 25.7346 38.105 25.595L38.1929 25.5393C38.2226 25.5232 38.295 25.4838 38.3882 25.4592Z" fill="black" stroke="black" stroke-width="0.0733884"/>
<path d="M49.6835 25.881C49.7681 25.8751 49.9509 25.8742 50.1191 25.962C50.2217 26.016 50.305 26.0969 50.373 26.2286C50.4948 26.4637 50.5451 26.8134 50.5058 27.2032C50.4666 27.5924 50.3387 28.0181 50.1084 28.4025C50.0712 28.4643 50.025 28.5367 49.9462 28.59L49.8554 28.6359C49.7149 28.6873 49.5331 28.6726 49.3525 28.6154C49.1727 28.5583 48.999 28.4606 48.8759 28.3527C48.6649 28.167 48.5949 27.9423 48.6132 27.6359C48.6315 27.3317 48.7375 26.9525 48.875 26.4581H48.8759L48.8828 26.4308C48.9112 26.3293 48.9629 26.1612 49.1464 26.0353C49.2795 25.9435 49.4571 25.8944 49.6826 25.881H49.6835Z" fill="black" stroke="black" stroke-width="0.0733884"/>
<path d="M37.7946 37.3666C38.358 37.4166 38.9211 37.4844 39.4782 37.5805C41.2523 37.8883 43.0252 38.2291 44.8044 38.518C45.0549 38.5589 45.3106 38.5643 45.5661 38.5599C45.8231 38.5556 46.0778 38.5414 46.3317 38.5433H46.8981C46.6652 39.1437 46.4621 39.704 46.2282 40.2523C46.1549 40.4218 46.0498 40.5436 45.9157 40.6254C45.7809 40.7074 45.6144 40.7506 45.4176 40.7592C43.5977 40.8378 41.8857 40.3278 40.1754 39.7924C39.5303 39.5908 38.8962 39.3369 38.2751 39.0639C37.9617 38.9252 37.6828 38.7034 37.3913 38.4994C37.2655 38.41 37.1968 38.3015 37.1696 38.183C37.149 38.0933 37.152 37.9962 37.1745 37.8949L37.2028 37.7924C37.25 37.6517 37.3263 37.5393 37.4254 37.4652C37.5242 37.3915 37.6481 37.3539 37.7946 37.3666Z" fill="white" stroke="black" stroke-width="0.0733884"/>
<path d="M58.797 3.3417C58.797 2.99667 58.8811 2.68215 59.0494 2.39813C59.2177 2.11411 59.4439 1.88794 59.7279 1.71963C60.0119 1.55133 60.3265 1.46717 60.6715 1.46717C60.9702 1.46717 61.2458 1.53134 61.4983 1.65967C61.7529 1.78801 61.9633 1.96368 62.1295 2.18669C62.2957 2.40759 62.3988 2.65795 62.4387 2.93776H61.675C61.633 2.72107 61.5162 2.54434 61.3247 2.40759C61.1333 2.26874 60.9155 2.19931 60.6715 2.19931C60.4611 2.19931 60.2697 2.25086 60.0971 2.35394C59.9246 2.45703 59.7868 2.59484 59.6837 2.76735C59.5807 2.93987 59.5291 3.13132 59.5291 3.3417C59.5291 3.55209 59.5807 3.74354 59.6837 3.91605C59.7868 4.08857 59.9246 4.22637 60.0971 4.32946C60.2697 4.43255 60.4611 4.48409 60.6715 4.48409C60.9155 4.48409 61.1217 4.41572 61.29 4.27897C61.4604 4.14011 61.5677 3.96234 61.6119 3.74564H62.3756C62.3356 4.02545 62.2378 4.27686 62.0821 4.49987C61.9264 4.72078 61.7266 4.8954 61.4825 5.02373C61.2406 5.15207 60.9702 5.21623 60.6715 5.21623C60.3265 5.21623 60.0119 5.13208 59.7279 4.96377C59.4439 4.79546 59.2177 4.5693 59.0494 4.28528C58.8811 4.00126 58.797 3.68673 58.797 3.3417ZM60.6399 6.6742C60.1813 6.6742 59.75 6.58794 59.3461 6.41543C58.9442 6.24291 58.5897 6.00413 58.2826 5.69907C57.9775 5.3919 57.7377 5.03741 57.5631 4.63557C57.3905 4.23373 57.3053 3.80245 57.3074 3.3417C57.3095 2.88096 57.3969 2.44967 57.5694 2.04783C57.744 1.646 57.9838 1.29255 58.2889 0.987494C58.5939 0.680331 58.9474 0.440492 59.3492 0.267977C59.7511 0.0954608 60.1813 0.00920296 60.6399 0.00920296C61.1007 0.00920296 61.532 0.0954608 61.9338 0.267977C62.3377 0.440492 62.6912 0.680331 62.9941 0.987494C63.2992 1.29255 63.538 1.646 63.7105 2.04783C63.883 2.44967 63.9703 2.88096 63.9724 3.3417C63.9745 3.80245 63.8893 4.23373 63.7168 4.63557C63.5443 5.03741 63.3055 5.3919 63.0005 5.69907C62.6954 6.00413 62.3409 6.24291 61.937 6.41543C61.533 6.58794 61.1007 6.6742 60.6399 6.6742ZM60.6399 5.94206C60.9997 5.94206 61.3374 5.87474 61.6529 5.74009C61.9685 5.60545 62.2452 5.41925 62.4829 5.18152C62.7206 4.94378 62.9068 4.66818 63.0415 4.35471C63.1761 4.03913 63.2424 3.70251 63.2403 3.34486C63.2382 2.9851 63.1698 2.64743 63.0352 2.33185C62.9005 2.01628 62.7143 1.73962 62.4766 1.50188C62.2389 1.26415 61.9633 1.07796 61.6498 0.943313C61.3363 0.808666 60.9997 0.741343 60.6399 0.741343C60.2823 0.741343 59.9467 0.808666 59.6332 0.943313C59.3198 1.07796 59.0442 1.2652 58.8064 1.50504C58.5687 1.74278 58.3815 2.01943 58.2447 2.33501C58.1101 2.64848 58.0417 2.9851 58.0396 3.34486C58.0375 3.70041 58.1037 4.03597 58.2384 4.35155C58.373 4.66502 58.5592 4.94063 58.797 5.17836C59.0368 5.4161 59.3135 5.60334 59.6269 5.74009C59.9425 5.87474 60.2802 5.94206 60.6399 5.94206Z" fill="white"/>
</svg>
