<svg width="33" height="32" viewBox="0 0 33 32" fill="none" xmlns="http://www.w3.org/2000/svg">
<path d="M28.4812 5.89001C28.4516 5.40242 28.2446 4.94253 27.8991 4.59712C27.5537 4.2517 27.0938 4.04464 26.6062 4.01501C25.0337 3.92126 21.015 4.06501 17.68 7.39876L17.0862 8.00001H9.79499C9.53134 7.99853 9.27002 8.04948 9.02624 8.14991C8.78246 8.25034 8.56109 8.39824 8.37499 8.58501L4.08749 12.875C3.82455 13.1378 3.64004 13.4686 3.55467 13.8304C3.46931 14.1922 3.48646 14.5706 3.6042 14.9232C3.72195 15.2758 3.93563 15.5886 4.22126 15.8265C4.50689 16.0644 4.85317 16.218 5.22124 16.27L10.03 16.9413L15.5562 22.4675L16.2275 27.2788C16.2791 27.6469 16.4327 27.9932 16.6708 28.2786C16.9089 28.5639 17.2221 28.777 17.575 28.8938C17.7805 28.9624 17.9958 28.9975 18.2125 28.9975C18.4749 28.998 18.7348 28.9466 18.9772 28.8462C19.2196 28.7458 19.4398 28.5984 19.625 28.4125L23.915 24.125C24.1018 23.9389 24.2497 23.7175 24.3501 23.4738C24.4505 23.23 24.5015 22.9687 24.5 22.705V15.4138L25.0962 14.8175C28.4312 11.4825 28.575 7.46376 28.4812 5.89001ZM9.79499 10H15.0862L10.145 14.94L5.49999 14.2925L9.79499 10ZM19.0962 8.81876C20.0571 7.85194 21.2133 7.10127 22.4875 6.61691C23.7616 6.13255 25.1245 5.92565 26.485 6.01001C26.5726 7.37124 26.3679 8.73545 25.8845 10.011C25.4011 11.2865 24.6503 12.4438 23.6825 13.405L16.5 20.585L11.915 16L19.0962 8.81876ZM22.5 22.705L18.2087 27L17.56 22.3538L22.5 17.4138V22.705ZM13.23 23.8925C12.6675 25.125 10.7862 28 5.49999 28C5.23477 28 4.98042 27.8947 4.79288 27.7071C4.60535 27.5196 4.49999 27.2652 4.49999 27C4.49999 21.7138 7.37499 19.8325 8.60749 19.2688C8.72699 19.2143 8.85606 19.1838 8.98732 19.1792C9.11858 19.1746 9.24947 19.1959 9.37251 19.2418C9.49554 19.2878 9.60832 19.3576 9.70441 19.4471C9.80049 19.5367 9.87799 19.6443 9.93249 19.7638C9.98699 19.8833 10.0174 20.0123 10.022 20.1436C10.0267 20.2749 10.0054 20.4057 9.95941 20.5288C9.91344 20.6518 9.84369 20.7646 9.75414 20.8607C9.66459 20.9568 9.55699 21.0343 9.43749 21.0888C8.63374 21.455 6.85999 22.6338 6.54749 25.9525C9.86624 25.64 11.0475 23.8663 11.4112 23.0625C11.4657 22.943 11.5432 22.8354 11.6393 22.7459C11.7354 22.6563 11.8482 22.5866 11.9712 22.5406C12.0943 22.4946 12.2251 22.4734 12.3564 22.478C12.4877 22.4826 12.6167 22.513 12.7362 22.5675C12.8557 22.622 12.9633 22.6995 13.0529 22.7956C13.1424 22.8917 13.2122 23.0045 13.2582 23.1275C13.3041 23.2505 13.3254 23.3814 13.3208 23.5127C13.3162 23.6439 13.2857 23.773 13.2312 23.8925H13.23Z" fill="#2563EB"/>
</svg>
