<svg width="32" height="32" viewBox="0 0 32 32" fill="none" xmlns="http://www.w3.org/2000/svg">
<path d="M29.0612 26.9388L23.125 21.0001C24.9049 18.6807 25.7359 15.7711 25.4494 12.8615C25.1629 9.95194 23.7804 7.26028 21.5823 5.33256C19.3842 3.40483 16.5352 2.38539 13.6131 2.48102C10.6911 2.57665 7.91477 3.7802 5.84745 5.84752C3.78013 7.91485 2.57658 10.6911 2.48094 13.6132C2.38531 16.5353 3.40476 19.3843 5.33248 21.5824C7.26021 23.7805 9.95186 25.163 12.8614 25.4494C15.771 25.7359 18.6806 24.905 21 23.1251L26.9412 29.0676C27.0808 29.2071 27.2464 29.3178 27.4287 29.3933C27.611 29.4688 27.8064 29.5077 28.0037 29.5077C28.2011 29.5077 28.3965 29.4688 28.5788 29.3933C28.7611 29.3178 28.9267 29.2071 29.0662 29.0676C29.2058 28.928 29.3165 28.7624 29.392 28.5801C29.4675 28.3978 29.5063 28.2024 29.5063 28.0051C29.5063 27.8077 29.4675 27.6124 29.392 27.4301C29.3165 27.2477 29.2058 27.0821 29.0662 26.9426L29.0612 26.9388ZM5.5 14.0001C5.5 12.3189 5.99851 10.6755 6.93251 9.27773C7.8665 7.87991 9.19402 6.79044 10.7472 6.1471C12.3004 5.50375 14.0094 5.33542 15.6583 5.6634C17.3071 5.99137 18.8217 6.80092 20.0104 7.98967C21.1992 9.17841 22.0087 10.693 22.3367 12.3418C22.6646 13.9906 22.4963 15.6997 21.853 17.2529C21.2096 18.8061 20.1202 20.1336 18.7223 21.0676C17.3245 22.0016 15.6811 22.5001 14 22.5001C11.7464 22.4978 9.5857 21.6015 7.99215 20.0079C6.39859 18.4144 5.50231 16.2537 5.5 14.0001Z" fill="#2563EB"/>
</svg>
