<svg width="33" height="32" viewBox="0 0 33 32" fill="none" xmlns="http://www.w3.org/2000/svg">
<path d="M26.5 17H17.5V15H23.5C24.0304 15 24.5391 14.7893 24.9142 14.4142C25.2893 14.0391 25.5 13.5304 25.5 13V8C25.5 7.46957 25.2893 6.96086 24.9142 6.58579C24.5391 6.21071 24.0304 6 23.5 6H17.5V4C17.5 3.73478 17.3946 3.48043 17.2071 3.29289C17.0196 3.10536 16.7652 3 16.5 3C16.2348 3 15.9804 3.10536 15.7929 3.29289C15.6054 3.48043 15.5 3.73478 15.5 4V6H9.5C8.96957 6 8.46086 6.21071 8.08579 6.58579C7.71071 6.96086 7.5 7.46957 7.5 8V13C7.5 13.5304 7.71071 14.0391 8.08579 14.4142C8.46086 14.7893 8.96957 15 9.5 15H15.5V17H6.5C5.96957 17 5.46086 17.2107 5.08579 17.5858C4.71071 17.9609 4.5 18.4696 4.5 19V24C4.5 24.5304 4.71071 25.0391 5.08579 25.4142C5.46086 25.7893 5.96957 26 6.5 26H15.5V28C15.5 28.2652 15.6054 28.5196 15.7929 28.7071C15.9804 28.8946 16.2348 29 16.5 29C16.7652 29 17.0196 28.8946 17.2071 28.7071C17.3946 28.5196 17.5 28.2652 17.5 28V26H26.5C27.0304 26 27.5391 25.7893 27.9142 25.4142C28.2893 25.0391 28.5 24.5304 28.5 24V19C28.5 18.4696 28.2893 17.9609 27.9142 17.5858C27.5391 17.2107 27.0304 17 26.5 17ZM9.5 8H23.5V13H9.5V8ZM26.5 24H6.5V19H26.5V24Z" fill="#2563EB"/>
</svg>
